<svg width="73" height="79" viewBox="0 0 73 79" fill="none" xmlns="http://www.w3.org/2000/svg">
<path d="M67.3 12.6365C63.5031 7.78672 56.7473 4.77228 50.7388 6.46406C49.3957 3.59316 46.861 1.33745 43.1549 0.742769C38.8127 0.0455502 34.0967 2.26024 31.7943 6.08468C31.4207 6.69988 31.1379 7.32532 30.9158 7.96102C26.6543 7.78672 22.3827 8.83255 19.4643 12.1751C17.7072 14.1847 16.8589 16.748 16.5661 19.5369C11.9915 20.7058 8.4167 24.6122 6.53841 29.1442C4.32688 34.4861 5.02367 40.1356 5.28623 45.7646C-0.429421 51.773 -1.46956 61.3495 4.59953 68.4652C11.2644 76.2782 28.1892 82.5736 37.1262 75.6117C37.9947 74.935 38.7824 74.0942 39.4892 73.1304C43.1953 73.2945 46.9721 71.7975 49.7895 68.9881C51.3548 67.4194 52.4858 65.6456 53.3037 63.7487C56.9997 65.6866 61.5238 65.5533 65.0178 62.1698C70.7435 56.6125 71.5615 46.1542 72.1775 38.6489C72.8844 30.0464 72.8844 19.7317 67.3101 12.616L67.3 12.6365Z" fill="#FBB800"/>
<path d="M38.1559 47.8464C34.7225 45.8368 30.0369 45.5907 26.1995 44.9652C21.8774 44.2578 17.5149 43.6938 13.1525 43.3555C8.00233 42.9556 1.50911 44.0527 2.71081 50.7788C2.83199 51.4658 3.3672 51.7836 3.9226 51.7939C3.85192 52.1835 3.79133 52.5731 3.72064 52.973C2.7815 58.7353 1.78177 68.4861 7.22476 72.4028C10.3451 74.6483 15.0409 75.1302 18.7065 75.6839C22.4631 76.258 26.765 76.9552 30.5519 76.3503C40.3775 74.8021 48.1128 53.6702 38.1559 47.8464ZM14.7985 47.7541C14.334 47.5798 13.8694 47.426 13.4049 47.2722C15.0611 47.3132 16.8485 47.467 18.656 47.6823C17.3736 47.6721 16.0911 47.6926 14.7985 47.7541ZM11.5266 57.3306C10.2946 57.1563 9.07275 56.9922 7.84076 56.8282C8.10331 55.0851 8.61832 53.1575 8.64861 51.517C9.64834 51.517 10.6582 51.4965 11.6579 51.476C12.1426 51.7836 12.5466 52.1937 12.7283 52.891C12.9606 53.7625 12.1729 55.7414 11.5266 57.3306Z" fill="#FFCE48"/>
<path d="M44.0534 13.8772C44.528 13.0365 45.0935 12.2265 45.76 11.4575C46.6386 10.4424 45.8105 8.24822 44.2958 8.90442C43.0436 9.43759 41.8621 10.1451 40.9229 11.0679C39.2062 9.84772 37.2976 8.91468 35.2881 8.38152C27.9365 6.44366 20.4536 10.2373 16.7577 16.8404C15.2025 19.6088 14.021 23.4845 14.6774 26.704C15.5559 31.0206 21.3423 31.4615 24.806 32.3433C24.8666 32.3535 24.907 32.3433 24.9676 32.3433C25.8865 33.4096 27.6032 33.6762 28.4111 32.0357C29.118 29.5851 31.0468 29.093 34.2076 30.549C33.127 31.9229 33.4805 33.7992 35.2073 34.3939C41.6904 36.6189 48.1129 32.1382 48.3452 25.1763C48.4866 20.9622 46.78 16.9737 44.0534 13.8875V13.8772Z" fill="#FFCE48"/>
<path d="M67.0477 23.1457C66.5731 20.8182 65.6642 18.5215 64.1697 16.276C63.079 14.6458 61.2007 15.1174 60.5141 16.3991C59.5648 16.4811 58.8276 17.7525 59.6961 18.542C60.201 19.0034 60.6554 19.4853 61.0897 19.9877C61.9581 22.1716 62.6852 24.3966 63.2406 26.6626C63.8061 34.9574 59.0902 43.9084 57.8279 51.906C57.7774 52.2136 57.7976 52.5006 57.8481 52.7672C57.4038 53.2594 56.9493 53.7618 56.4747 54.2949C54.5762 56.4174 53.4048 58.4783 53.627 61.3902C53.728 62.7744 54.8994 63.8509 56.3132 63.4716C64.2706 61.2876 67.2395 52.798 68.3503 45.2926C68.7543 42.5858 68.9159 39.8994 68.8856 37.2336C69.3602 32.4864 69.037 27.3803 67.0578 23.1662L67.0477 23.1457Z" fill="#FFF9E4"/>
<path d="M29.4209 70.9679C27.5325 72.0035 25.7754 72.5879 23.6042 72.3623C23.2003 72.3213 23.0993 73.0288 23.5032 73.0903C25.6643 73.4287 28.0778 73.1313 29.9157 71.8292C30.4307 71.46 29.9864 70.65 29.4209 70.9679Z" fill="#432A05"/>
<path d="M69.1376 24.9203C67.9056 17.9789 64.7651 10.5248 57.9184 7.64368C55.1414 6.47481 52.1523 6.42354 49.5772 7.38735C49.5267 7.25406 49.456 7.14127 49.3146 7.03874C42.4074 2.13771 32.8342 2.84517 27.4215 9.67381C27.2397 9.89938 27.2902 10.1557 27.4417 10.3095C26.7348 10.4531 26.0582 10.6376 25.4018 10.8734C21.3524 12.3089 18.9793 14.9645 17.7776 18.2147C17.5352 17.9174 17.0707 17.7738 16.6971 18.1019C9.59793 24.2026 6.44727 34.3123 7.28543 43.5914C4.32662 44.4527 2.12519 47.9901 2.87247 51.0045C2.96335 51.3839 3.47836 51.3121 3.54905 50.9635C3.55915 51.0455 3.60964 51.1173 3.69043 51.1378C4.02367 51.2301 4.36701 51.2916 4.70026 51.3736C3.46826 56.0081 0.640725 64.6003 3.14511 69.1835C5.67979 73.8179 13.092 74.7715 17.6059 75.561C22.6349 76.4427 30.8044 78.114 35.6415 75.8583C36.2676 75.561 36.7523 75.2021 37.1563 74.792C40.1959 74.3306 42.5791 72.8541 44.4371 70.7932C48.1937 69.5218 50.8799 66.9893 52.7582 63.821C52.6774 64.1901 52.8289 64.59 53.2934 64.7028C70.6625 68.8656 70.8746 34.7737 69.1275 24.9101L69.1376 24.9203ZM61.7558 12.2679C62.7656 13.3034 63.6139 14.4723 64.3309 15.7232C59.7058 12.5652 52.6875 14.8414 50.89 20.4294C50.5466 20.0091 50.2033 19.5989 49.8196 19.1991C49.557 18.5531 49.2136 17.9379 48.7592 17.374C47.5979 15.9283 46.0832 14.6569 44.3766 13.6008C48.0322 6.70038 56.6359 7.04899 61.7457 12.2679H61.7558ZM51.6473 21.424C52.95 18.4301 55.0808 16.646 57.5044 16.0821C67.734 24.4179 61.6548 43.4274 56.1815 53.5268C56.3835 52.2041 56.5248 50.8712 56.6056 49.5691C57.1509 40.3514 57.2216 29.1652 51.6575 21.4137L51.6473 21.424ZM43.7808 13.2317C42.5892 12.5447 41.3168 11.9603 39.9939 11.4886C41.9227 10.3095 43.7303 9.83786 45.8812 9.83786C44.9926 10.7709 44.2655 11.8988 43.7808 13.2317ZM48.1533 8.0538C47.8403 8.2281 47.5474 8.43318 47.2546 8.63824C44.3867 7.84874 40.9734 8.90482 38.9437 11.058C38.9235 11.0785 38.9134 11.1093 38.8932 11.1298C35.3588 10.0224 31.582 9.63281 28.2294 10.166C34.1167 4.93684 41.4379 3.79872 48.1634 8.0538H48.1533ZM26.5227 12.2986C32.4303 10.4838 41.6399 12.4729 46.0226 17.0459C50.072 21.2599 48.4866 26.3968 45.6288 30.6621C42.7709 34.9275 40.4988 35.4299 35.591 34.4148C34.975 34.097 34.1772 34.179 33.5007 34.0047C33.4502 33.9432 33.3795 33.9022 33.2886 33.9124C33.1371 33.9432 32.9554 33.9637 32.8544 34.1175C32.814 34.179 32.8241 34.2405 32.8039 34.302C32.8039 34.3328 32.8039 34.3738 32.8241 34.4045C32.8241 34.4045 32.8241 34.4148 32.8241 34.4251C32.8039 34.4251 32.7837 34.4353 32.7635 34.4456C32.7433 34.4456 32.7231 34.4251 32.6928 34.4251C33.0664 33.4818 33.6319 32.6615 34.6115 32.0873C34.975 31.8823 34.9952 31.4927 34.8336 31.2158C35.1871 31.1133 35.4093 30.6211 35.0861 30.3033C33.531 28.7755 31.1276 28.0886 28.9766 28.1603C28.8655 27.9245 28.5121 27.8425 28.3101 28.1193C27.5628 29.1139 26.4016 30.7442 25.3715 32.5897C25.3513 32.5795 25.3311 32.559 25.3008 32.5487C25.0686 32.4872 24.8262 32.4257 24.5839 32.3642C24.6041 32.2514 24.6141 32.1386 24.6444 32.0258C22.7864 31.4209 20.9485 30.6211 19.1308 29.4523C18.9187 29.319 18.7167 29.3292 18.545 29.401C18.1512 22.2955 18.5451 14.7491 26.5025 12.2986H26.5227ZM30.4207 39.3774C29.6936 41.8586 26.6641 43.5812 24.9777 40.7411C23.9679 39.0493 24.4829 36.9679 25.22 35.3068C26.1693 33.1742 27.5427 31.2466 28.6434 29.1754C28.6434 29.1754 28.6535 29.1754 28.6636 29.1754C30.7741 29.2164 32.3394 29.8726 34.0662 30.9185C34.0359 30.9287 34.0157 30.9287 33.9854 30.9492C30.8347 32.7128 31.3194 36.3322 30.4308 39.3774H30.4207ZM3.68032 50.7379C3.68032 50.7379 3.59954 50.7687 3.57934 50.7995C3.71062 47.4364 5.92215 45.2525 9.02234 44.6168C15.1419 44.9961 21.2514 45.2422 27.3306 46.1445C29.8956 46.5239 32.4605 46.975 35.0053 47.5184C38.0449 48.1746 38.1156 48.0926 40.1555 51.1993C42.0742 54.1317 42.0035 54.1728 42.0338 56.654C35.278 54.7367 28.4414 53.1679 21.5039 52.0708C15.7478 51.1686 9.46666 49.9382 3.68032 50.7379ZM9.8605 52.3272C9.56765 53.5268 9.31518 54.7469 9.06273 55.9568C8.41643 55.803 7.79034 55.6082 7.17434 55.3621C7.61867 54.224 8.19428 53.1679 8.93146 52.1939C9.24451 52.2451 9.54745 52.2964 9.8605 52.3374V52.3272ZM28.3707 75.3046C28.3707 75.3046 28.3505 75.3354 28.3404 75.3456C24.4829 75.3559 20.08 74.4844 17.0808 73.9307C11.9609 72.9874 3.74091 71.7262 3.82169 64.9489C3.87219 60.54 5.11429 56.0081 5.6798 51.6094C6.47756 51.7837 7.28543 51.9273 8.0933 52.0606C7.15415 53.0756 6.42707 54.224 5.90196 55.5262C5.82118 55.7415 5.95245 56.0798 6.16451 56.1721C7.19454 56.654 8.24477 57.0231 9.35559 57.2487C9.65854 57.3102 10.0019 57.1667 10.0726 56.8386C10.4058 55.3929 10.7694 53.9369 11.0622 52.481C15.0207 52.9731 19.05 53.25 22.9277 53.9267C27.6638 54.7572 32.3495 55.803 36.9947 57.0129C35.4597 63.9953 34.1874 70.5779 28.3707 75.3046ZM32.7837 74.7714C31.9152 75.0483 30.9256 75.2123 29.8653 75.2841C35.3083 71.1315 37.1361 63.903 38.1156 57.3102C39.0345 57.5563 39.9434 57.7921 40.8623 58.0485C40.8422 58.0895 40.8118 58.1305 40.7917 58.1817C39.3678 63.3084 38.7417 72.8643 32.7837 74.7714ZM43.5283 69.5526C43.0941 69.6858 42.6699 69.8294 42.2054 69.9319C41.5894 70.0652 41.5894 70.7727 41.9429 71.1213C40.8623 72.0441 39.6102 72.8233 38.1459 73.418C38.5397 72.6593 38.8124 71.798 39.1052 70.8547C40.3372 66.8355 41.2461 62.6726 42.2357 58.5919C42.2559 58.5201 42.2458 58.4483 42.2357 58.3766C42.4478 58.3561 42.6295 58.2433 42.7507 58.0895C43.1345 58.11 43.5283 57.8741 43.5182 57.3717C43.4576 54.7059 44.1241 51.3941 42.367 49.0974C40.7412 46.975 37.7824 46.5854 35.3891 46.0727C26.9671 44.2579 18.1512 43.1813 9.52726 43.653C9.42627 43.5299 9.29498 43.4376 9.12331 43.4171C8.80017 43.3864 8.47702 43.3966 8.16398 43.4171C9.38587 34.261 10.3553 26.0584 17.3837 19.4554C16.5355 22.6339 16.6769 26.2738 17.4443 29.8521C17.5251 30.211 17.8786 30.3238 18.1714 30.2417C18.2118 30.3955 18.2926 30.5391 18.4643 30.6416C20.5041 31.9438 22.5137 32.8666 24.604 33.5433C24.604 33.4715 24.5838 33.3997 24.5737 33.328C24.6949 33.3587 24.806 33.3998 24.9272 33.4305C22.8974 37.3575 21.7866 41.9407 26.4116 43.4582C28.1183 44.0118 29.7239 43.2223 30.7034 41.7766C31.9051 40.0131 31.8647 37.5625 32.3797 35.4606C32.6221 36.1066 33.5714 36.1578 33.945 35.6554C36.9543 36.4552 40.1656 37.4395 42.9022 35.9425C45.8913 34.3123 48.628 30.5801 49.8196 26.6429C51.9503 29.8214 50.4759 35.4914 50.1528 39.0288C49.759 43.3556 49.3752 47.6825 48.9713 51.9991C48.3755 58.2638 47.3657 65.0411 43.5081 69.5526H43.5283ZM46.2548 68.3734C48.2644 65.1129 49.3954 61.0834 49.9407 57.3307C50.8698 50.9532 51.203 44.4424 51.7887 38.0239C52.1624 33.8919 53.6569 28.7038 50.6678 25.2895C50.5365 25.1357 50.3851 25.0741 50.2336 25.0639C50.4255 24.0488 50.5062 23.044 50.4558 22.0699C54.8283 29.1857 55.4039 37.4292 55.2222 46.0317C55.0505 54.2343 53.5862 64.2004 46.2548 68.3632V68.3734ZM53.7276 63.1648C53.4348 63.1033 53.1924 63.2058 53.0207 63.3699C54.2729 61.1449 55.1313 58.6227 55.717 56.0183C56.03 56.1619 56.4239 56.1208 56.6561 55.7415C61.2509 48.3182 63.8663 39.767 64.0683 30.98C64.1895 25.5048 63.4422 19.117 58.7162 15.8873C60.9075 15.7437 63.2604 16.5332 65.4215 18.2968C65.4921 18.348 65.5729 18.3788 65.6537 18.3993C67.0978 21.9777 67.7441 25.9764 68.0773 29.6778C68.8549 38.2188 67.6936 66.0255 53.7377 63.1546L53.7276 63.1648Z" fill="#432A05"/>
<path d="M52.5564 9.82754C50.4761 9.97109 48.4161 11.0067 47.1437 12.6984C46.9316 12.9855 47.3759 13.2726 47.6082 13.0675C49.0826 11.7654 50.5973 10.9861 52.5463 10.7503C53.1118 10.6786 53.1421 9.78653 52.5463 9.82754H52.5564Z" fill="#432A05"/>
<path d="M53.5559 11.3755C52.021 11.314 50.3851 12.4009 49.3046 13.4057C49.0218 13.6723 49.4055 14.2157 49.7287 13.9696C50.3245 13.5185 50.9708 13.1391 51.6676 12.8725C52.3239 12.6162 53.0207 12.5649 53.6872 12.3393C54.2022 12.165 54.1113 11.396 53.5559 11.3755Z" fill="#432A05"/>
<path d="M20.2719 25.4128C20.2921 24.6746 20.5142 24.0081 20.6253 23.3006C20.696 22.829 20.0396 22.4291 19.7972 22.9418C19.1207 24.367 19.2418 26.3151 19.8376 27.7505C20.0093 28.1607 20.5849 28.0171 20.5041 27.566C20.3627 26.8585 20.2618 26.1408 20.282 25.4128H20.2719Z" fill="#432A05"/>
<path d="M22.4126 23.3205C20.9685 23.8332 20.4131 25.648 20.6252 27.0424C20.6858 27.4115 21.2614 27.3193 21.2614 26.9501C21.2614 26.3862 21.4432 25.771 21.7259 25.2891C22.0188 24.7867 22.4631 24.5099 22.867 24.1202C23.1902 23.8024 22.867 23.1667 22.4126 23.3205Z" fill="#432A05"/>
<path d="M32.3294 40.7619C32.0769 41.2233 32.0062 41.7462 31.7134 42.1973C31.4003 42.6792 30.9762 43.0586 30.4814 43.3354C30.1279 43.5405 30.441 44.0532 30.7944 43.8789C31.3902 43.602 31.9052 43.1919 32.3193 42.6587C32.6626 42.2076 33.0867 41.5411 33.0362 40.9464C33.006 40.5876 32.5313 40.403 32.3395 40.7516L32.3294 40.7619Z" fill="#432A05"/>
<path d="M34.2681 40.8439C33.9853 41.7769 33.6117 42.5562 32.8543 43.2021C32.5918 43.4277 32.9351 43.8788 33.228 43.684C34.1267 43.0893 34.9144 42.1666 35.1466 41.0797C35.2678 40.5055 34.4398 40.2595 34.2681 40.8336V40.8439Z" fill="#432A05"/>
<path d="M14.3541 49.5587C12.5969 48.6052 10.0825 48.4206 8.12339 48.4924C7.71946 48.5027 7.72956 49.0768 8.12339 49.1178C9.19382 49.2204 10.244 49.3229 11.2943 49.5485C12.2233 49.7433 13.1322 50.1022 14.0713 50.2354C14.4449 50.2867 14.7479 49.774 14.3541 49.5587Z" fill="#432A05"/>
<path d="M16 48.2975C14.455 47.9797 12.7484 47.6618 11.1629 47.7028C10.8701 47.7028 10.7994 48.154 11.0923 48.2257C12.6171 48.6256 14.2025 48.8614 15.7476 49.2306C16.3434 49.3741 16.5958 48.4205 16 48.2975Z" fill="#432A05"/>
<path d="M30.4007 68.8552C28.583 69.8908 27.0683 70.3932 24.9577 70.3009C24.5538 70.2804 24.4528 70.9366 24.8568 71.0289C26.8461 71.4698 29.3101 71.0802 30.946 69.7985C31.4812 69.3782 31.0268 68.4861 30.4007 68.845V68.8552Z" fill="#432A05"/>
</svg>
