<svg width="200" height="151" viewBox="0 0 200 151" fill="none" xmlns="http://www.w3.org/2000/svg">
<path d="M185.117 80.1654C186.51 71.5997 190.649 59.3706 187.706 50.8153C184.953 42.809 176.366 41.2565 169.161 39.2413C126.719 27.4242 81.8741 24.069 41.0236 6.76379C37.7168 5.35916 32.9606 5.55937 31.2062 9.42651C17.9075 38.7478 9.64254 69.5166 6.39137 101.538C5.02253 104.22 5.76412 108.006 9.59353 109.168C60.2864 124.525 111.795 137.168 163.116 150.277C166.84 151.232 170.945 148.899 171.86 145.116C177.078 123.63 181.54 101.979 185.095 80.1716L185.117 80.1654ZM60.0976 41.4124C59.6115 42.1177 59.1755 42.8325 58.7035 43.5457C58.5541 42.5592 58.2217 41.6364 57.7407 40.8148C58.531 41.0166 59.3073 41.2106 60.1055 41.3984L60.0976 41.4124ZM107.917 109.827C107.887 110.805 108.053 111.727 108.367 112.585C107.883 112.462 107.406 112.324 106.922 112.201C107.254 111.41 107.571 110.61 107.917 109.827Z" fill="#FBB800"/>
<path d="M168.589 54.4212C169.111 52.6298 167.874 50.5203 166.048 50.127C125.54 41.0852 85.4907 30.3644 46.0132 17.5303C44.2953 16.9763 41.9091 18.279 41.6377 20.1178C40.3701 28.4588 39.2464 36.8065 38.1726 45.1636C33.0126 60.1769 29.0833 75.5274 26.3848 91.2151C26.3056 91.6869 26.3218 92.1198 26.3897 92.5263C26.0698 93.693 26.5262 95.0537 28.0833 95.4995C68.2801 106.782 108.859 116.489 148.855 128.526C150.511 129.027 152.798 127.835 153.06 126.046C156.701 101.873 161.802 77.9247 168.581 54.4352L168.589 54.4212ZM43.3388 76.4676C43.3642 75.5971 43.4193 74.7064 43.4885 73.8236C43.6588 73.8818 43.8149 73.9322 43.993 73.9764C43.7676 74.8088 43.5423 75.6413 43.3309 76.4816L43.3388 76.4676ZM57.5254 67.104C57.5896 66.329 57.6398 65.5461 57.7119 64.757C57.7276 64.7289 57.7433 64.7008 57.7512 64.6868C58.0358 64.6062 58.3563 64.5272 58.7331 64.4796C58.3326 65.3617 57.9259 66.2219 57.5254 67.104ZM60.9416 76.8262C61.0452 76.6076 61.141 76.4031 61.2447 76.1846C61.7657 76.6046 62.2727 77.0167 62.7937 77.4367C62.1769 77.2212 61.5662 77.0276 60.9416 76.8262ZM122.027 74.8951C122.012 73.7995 121.984 72.6961 121.955 71.5927C122.467 71.7314 122.972 71.8841 123.498 72.0307C122.986 72.9797 122.525 73.9382 122.049 74.8889L122.027 74.8951ZM157.156 55.7206C156.565 55.7224 155.842 55.6317 155.02 55.486C155.022 55.2844 155.002 55.089 154.996 54.9015C155.802 55.0752 156.601 55.263 157.407 55.4367C157.316 55.5334 157.233 55.6161 157.156 55.7206Z" fill="#FFF9E4"/>
<path d="M163.837 93.1232C167.402 79.2831 170.967 65.443 174.526 51.5811C174.623 51.1749 174.552 50.8403 174.392 50.5665C174.386 50.2133 174.221 49.8816 173.812 49.69C172.012 48.8873 169.786 48.5838 167.756 48.7214C167.603 48.5992 167.42 48.4972 167.178 48.4357C146.444 43.6191 125.716 38.8244 105.153 33.2736C84.6391 27.7324 64.478 20.4713 43.8617 15.444C42.4653 15.1064 42.0749 17.0262 43.3194 17.5369C62.8961 25.4484 84.0718 30.5301 104.435 36.0429C124.963 41.592 145.633 46.8523 166.47 51.155C167.084 51.2767 167.557 51.0246 167.84 50.6486C168.492 50.736 169.157 50.8313 169.806 50.9906C170.412 51.1264 170.994 51.3043 171.577 51.4822C168.064 65.1302 164.551 78.7781 161.052 92.434C157.984 104.395 153.542 116.934 152.128 129.267C110.33 117.882 68.659 105.279 26.5263 95.2195C26.6591 94.5197 26.081 93.7729 25.456 93.7371C32.1979 68.8629 39.9221 42.9891 42.7335 17.4309C42.8485 16.334 41.1531 16.2349 40.8634 17.2157C37.0616 30.0941 34.9806 43.6202 31.9113 56.705C28.8247 69.8539 25.5319 82.9429 22.0752 95.9955C21.7978 97.0201 22.7696 97.8209 23.7297 97.6199C24.1518 97.524 24.4786 97.4669 24.7491 97.3784C66.6239 110.243 109.434 120.607 151.703 132.107C152.727 132.384 153.376 131.586 153.42 130.781C158.451 119.068 160.659 105.447 163.822 93.1513L163.837 93.1232Z" fill="#432A05"/>
<path d="M59.9756 75.4209C57.2638 74.8647 54.7073 74.0634 52.2234 72.9341C56.9819 68.9018 64.4453 62.2705 61.7838 56.0476C60.722 53.5931 58.3995 52.2407 55.7244 52.7738C52.5035 53.4261 50.7323 56.3992 49.6523 59.2239C49.3158 60.1234 50.6184 60.4639 51.095 59.8086C51.8037 58.8037 52.5545 57.8224 53.3755 56.8803C59.0404 56.3399 60.8077 57.8614 58.6975 61.4745C57.9893 62.9404 56.766 64.1738 55.688 65.3779C53.5008 67.8422 51.0999 70.095 48.5883 72.2492C47.8915 72.8368 48.1293 74.0938 48.8957 74.5035C52.2081 76.2613 55.5732 77.4957 59.2521 78.1683C61.0455 78.488 61.7674 75.7766 59.9616 75.413L59.9756 75.4209Z" fill="#432A05"/>
<path d="M81.97 68.7408C80.8272 68.2131 79.6154 67.7759 78.3661 67.373C78.6933 65.7312 78.9627 64.0939 79.2507 62.5224C79.4801 61.2867 77.7573 60.8406 77.3638 62.0399C76.8713 63.5157 76.3397 65.0617 75.836 66.6234C73.7212 66.0872 71.556 65.7072 69.4982 65.4979C68.5373 65.4035 68.5091 66.8068 69.318 67.0743C71.2404 67.7241 73.183 68.4036 75.1194 69.0613C74.7586 70.3342 74.4479 71.6165 74.2684 72.8617C74.0272 74.5146 76.1982 75.0821 76.7816 73.5097C77.2076 72.3839 77.5292 71.1812 77.8226 69.9629C78.8939 70.3216 79.9714 70.7023 81.0505 71.047C82.3779 71.4751 83.283 69.3267 81.9919 68.7346L81.97 68.7408Z" fill="#432A05"/>
<path d="M102.516 74.6872C101.994 72.2574 100.173 70.7983 98.0528 69.909C100.635 68.4207 102.827 66.0143 102.167 63.1028C101.081 58.3494 95.4506 59.5541 92.3386 61.1333C91.6236 61.4896 92.1353 62.5863 92.8718 62.3894C94.3887 61.9834 101.031 59.9246 99.2931 65.3124C98.6479 67.2926 95.2709 68.5211 93.6107 68.7549C92.2037 68.9643 91.6378 71.0994 93.292 71.4704C94.412 71.7089 95.6667 71.8383 96.6702 72.4173C99.0084 73.7416 100.578 77.0692 98.2987 79.3349C97.1364 80.4918 95.102 81.0327 93.5095 81.0463C93.8408 81.047 87.8022 80.3098 88.1735 79.909C89.358 78.5801 87.5832 76.907 86.2367 77.998C83.9634 79.8245 85.62 81.8739 87.7152 82.8413C91.0373 84.3835 96.0538 84.4761 99.1405 82.3483C101.513 80.7065 103.16 77.6268 102.523 74.7091L102.516 74.6872Z" fill="#432A05"/>
<path d="M117.111 73.6981C114.077 73.4224 110.923 73.3934 107.892 73.3771C106.969 73.3782 106.727 74.9014 107.7 75.0396C110.82 75.492 114.02 75.9337 117.167 76.1065C118.741 76.1929 118.64 73.8328 117.133 73.6919L117.111 73.6981Z" fill="#432A05"/>
<path d="M120.319 78.714C118.835 78.5669 117.354 78.8089 115.843 78.6101C114.346 78.4192 112.916 78.044 111.48 77.611C110.55 77.3307 109.898 78.8279 110.816 79.2301C113.676 80.4775 117.535 81.6192 120.679 81.0715C122.132 80.8138 121.559 78.8356 120.327 78.6999L120.319 78.714Z" fill="#432A05"/>
<path d="M178.91 100.915C182.87 85.5084 186.803 70.086 190.415 54.5769C190.479 54.2989 190.424 54.0659 190.319 53.8594C190.975 53.839 191.611 53.1622 191.145 52.4782C190.295 51.2291 189.208 50.1061 188.276 48.9038C187.33 47.6936 186.466 46.4366 185.557 45.1922C185.056 44.5065 184.07 44.9513 184.181 45.6766C183.652 45.2707 182.869 45.2205 182.403 45.6601C182.352 45.1896 182.062 44.7513 181.45 44.5937C156.781 38.5742 132.147 32.3907 107.626 25.8089C83.1546 19.2366 58.9117 11.1333 34.2855 5.26709C33.2093 5.01617 32.7192 6.12465 33.1255 6.84916C33.1255 6.84916 33.1177 6.86321 33.1098 6.87726C24.4345 37.3248 17.7556 68.8505 11.189 99.8123C11.1717 99.8764 11.1841 99.9201 11.1887 99.978C11.0635 100.037 10.9445 100.118 10.9004 100.296C10.831 100.552 10.8335 100.812 10.8361 101.071C10.7093 101.166 10.6308 101.307 10.6226 101.486C10.619 103.77 11.2448 106.939 12.7927 108.688C13.3274 109.282 14.3431 108.651 14.1104 107.913C13.7722 106.802 13.0837 105.791 12.6579 104.706C12.4839 104.258 12.3599 103.821 12.2296 103.361C12.4684 103.494 12.7168 103.577 13.0183 103.598C13.1402 103.611 13.2216 103.565 13.3108 103.504C23.0341 108.566 35.1475 110.669 45.6053 113.69C58.2668 117.352 70.9551 120.9 83.6781 124.32C108.398 130.976 133.628 138.764 158.903 142.874C159.139 142.913 159.342 142.879 159.525 142.816C159.82 142.981 160.217 142.963 160.527 142.804C160.958 143.45 161.376 144.089 161.807 144.735C162.111 145.181 162.421 145.649 162.731 146.117C137.449 140.898 112.259 135.215 87.2311 128.848C74.9201 125.713 62.6515 122.436 50.4193 118.996C38.6494 115.684 25.8068 109.838 13.5934 109.135C13.4856 109.13 13.4493 109.294 13.5336 109.341C23.5736 115.354 37.1357 117.437 48.3574 120.608C61.0862 124.216 73.8654 127.668 86.6809 130.955C112.326 137.538 138.123 143.486 164.06 148.721C164.688 148.851 165.129 148.489 165.33 148.03C165.59 147.862 165.755 147.567 165.762 147.257C165.923 147.2 166.064 147.113 166.16 146.908C172.012 132.337 175.003 116.094 178.904 100.893L178.91 100.915ZM84.3798 121.579C72.1691 118.298 59.9711 114.894 47.8203 111.407C36.4738 108.129 24.3568 102.799 12.5928 101.721C12.5068 101.709 12.4614 101.758 12.3879 101.79C12.2648 101.648 12.1714 101.485 12.0858 101.308C12.6762 101.472 13.3644 101.23 13.5584 100.454C21.3306 69.9073 29.2431 38.8125 34.9331 7.80343C58.3457 16.1065 82.9656 21.9508 106.923 28.4204C131.429 35.0302 156.041 41.3497 180.755 47.1911C181.225 47.3062 181.599 47.1649 181.884 46.9186C175.897 78.5912 166.918 109.219 159.351 140.488C134.759 133.075 109.192 128.268 84.3579 121.585L84.3798 121.579ZM163.212 143.64C162.59 142.906 161.954 142.163 161.31 141.435C172.301 111.23 178.781 78.543 184.695 47.0328C184.706 46.9468 184.702 46.889 184.699 46.7953C185.913 49.0766 187.467 51.4743 189.295 53.2507C188.87 53.2529 188.449 53.4785 188.308 54.0268C184.476 69.4681 180.757 84.9363 176.803 100.365C172.945 115.423 167.587 130.658 165.149 146.012C164.568 145.171 163.854 144.404 163.212 143.64Z" fill="#432A05"/>
<path d="M178.032 49.5588C178.03 48.9681 177.079 48.8237 176.979 49.4314C176.777 50.8484 176.576 52.2654 176.238 53.6618C175.9 55.0582 175.335 56.401 175.061 57.8147C174.92 58.5286 175.927 59.0357 176.306 58.3255C177.638 55.8077 178.012 52.3672 178.018 49.551L178.032 49.5588Z" fill="#432A05"/>
<path d="M20.497 93.0132C18.8217 94.3628 18.0799 96.8788 18.0065 98.9572C17.9958 99.5041 18.8271 99.5998 18.9595 99.0657C19.1993 98.0754 19.5391 97.1041 20.0272 96.1972C20.4901 95.3683 21.1137 94.6477 21.5968 93.8486C22.0408 93.1198 21.0732 92.5425 20.497 93.0132Z" fill="#432A05"/>
<path d="M19.023 91.0658C17.9335 92.5215 17.123 94.3357 16.2926 95.9544C15.9928 96.5242 16.7795 96.9635 17.1636 96.4409C18.2249 94.9695 19.485 93.4064 20.2732 91.7641C20.6862 90.9258 19.5826 90.3279 19.0308 91.0518L19.023 91.0658Z" fill="#432A05"/>
<path d="M131.061 45.2565C128.596 44.1929 125.681 43.8363 123.07 43.263C122.3 43.091 121.996 44.2296 122.771 44.4595C125.337 45.2108 128.06 46.3078 130.735 46.567C131.416 46.6342 131.691 45.5158 131.075 45.2644L131.061 45.2565Z" fill="#432A05"/>
<path d="M132.455 47.7116C130.448 47.0147 128.258 46.7128 126.19 46.2581C125.406 46.0781 125.1 47.2527 125.882 47.4685C127.908 48.0654 129.989 48.8594 132.076 49.2141C133.07 49.3821 133.42 48.0294 132.463 47.6975L132.455 47.7116Z" fill="#432A05"/>
<path d="M116.932 115.267C114.465 114.239 111.542 113.897 108.939 113.309C108.191 113.131 107.903 114.241 108.649 114.456C111.223 115.193 113.938 116.304 116.597 116.591C117.271 116.673 117.575 115.534 116.932 115.267Z" fill="#432A05"/>
<path d="M118.396 113.173C116.593 112.442 114.626 111.971 112.766 111.374C111.985 111.122 111.708 112.312 112.459 112.584C114.3 113.281 116.134 114.121 118.01 114.69C119.005 114.987 119.302 113.531 118.404 113.159L118.396 113.173Z" fill="#432A05"/>
</svg>
