<svg width="178" height="141" viewBox="0 0 178 141" fill="none" xmlns="http://www.w3.org/2000/svg">
<path d="M173.75 86.7407C172.95 85.0594 172.047 84.086 171.066 83.732C174.55 82.1982 176.331 77.6557 175.893 73.6441C177.054 71.5498 177.08 68.8361 174.86 66.6828C159.708 51.9048 143.498 39.1326 126.849 26.6259C112.42 15.8005 100.444 4.79818 82.5816 10.3731C64.384 16.066 46.1091 24.4137 28.5052 32.1714C16.8123 37.3333 5.1967 45.268 5.79038 61.2849C5.94526 65.3259 8.19091 69.19 11.753 70.2224C12.708 70.5174 13.6632 70.8419 14.6183 71.1368C26.3628 79.1895 38.5977 86.3573 50.2132 94.6459C63.3774 104.055 75.2252 116.562 88.4926 125.529C99.1789 132.756 108.11 128.479 119.209 124.113C136.761 117.241 154.262 110.22 171.814 103.289C178.474 100.663 179.506 91.1358 173.724 86.6522L173.75 86.7407Z" fill="#FBB800"/>
<path d="M164.197 67.7741C163.397 66.0927 166.387 65.3885 165.407 65.0346C168.891 63.5007 165.845 67.6764 165.407 63.6648C166.568 61.5705 168.836 65.8181 166.616 63.6648C151.464 48.8868 145.774 51.5163 129.125 39.0095C114.696 28.1841 102.519 18.4632 92.8441 12.9843C74.6465 18.6772 43.9319 29.882 26.328 37.6397C14.6351 42.8016 19.0719 37.6397 29.9562 49.9674C31.228 52.7068 37.2788 57.1535 40.8408 58.1858C41.7959 58.4808 47.142 64.7396 48.0971 65.0346C59.8416 73.0872 60.6691 77.2921 72.2846 85.5807C85.4488 94.9903 75.9485 90.3111 89.2159 99.2782C100.1 99.2782 105.932 95.4253 117.032 91.0597C134.584 84.1869 130.923 81.5546 148.475 74.6228C155.135 71.9976 163.932 74.9971 158.15 70.5136L164.197 67.7741Z" fill="#FFF9E4"/>
<path d="M85.487 91.0538C69.1605 79.0275 52.7614 66.508 35.4673 56.3171C32.5406 54.5913 28.2255 57.7605 28.9995 60.5C27.4273 63.3764 28.1143 66.1793 26.8808 69.3023C26.0584 71.3569 26.2278 74.2334 28.2837 75.3566C45.7471 85.0544 61.7591 96.6972 76.1507 111.573C78.5211 114.011 82.3427 113.025 83.2618 109.436C84.3503 105.19 84.8098 102.176 84.4712 99.8202C87.3979 98.7518 88.8975 93.5194 85.487 91.0264V91.0538Z" fill="#FFF9E4"/>
<path d="M23.4973 43.3081C22.1186 41.7466 19.2161 41.3904 17.91 43.3081C15.08 47.4173 13.0242 52.1292 13 57.4438C13 60.4573 17.2906 67.0134 18.5 64C19.8787 60.5482 24.178 52.7669 26.5 50C27.9754 48.2467 25.0211 45.034 23.4973 43.3081Z" fill="#FFF9E4"/>
<path d="M173.456 86.1777C173.48 85.7394 173.287 85.2463 172.852 85.1093C165.934 83.0273 161.363 78.4797 160.976 70.2065C163.298 68.8915 165.571 67.5766 167.821 66.3164C169.683 65.2754 168.498 62.4537 166.756 62.4811C166.611 62.1798 166.393 61.9332 166.079 61.7141C140.924 46.236 117.849 27.4705 93.323 10.8965C92.4765 10.3213 91.5333 11.3897 91.7751 12.2663C91.7268 12.2663 91.7025 12.2663 91.6783 12.2663C67.2489 22.3202 42.215 29.8812 17.5679 39.1133C16.6488 39.442 16.7696 40.6748 17.4468 41.0309C10.8678 45.2497 9.34406 57.4678 14.1574 63.8509C14.2057 64.3988 14.4477 64.9467 14.9556 65.3302C37.4258 83.1643 59.7991 101.546 83.0433 118.148C84.3978 120.86 86.6232 123.024 89.6708 123.791C89.8643 124.01 90.1788 124.147 90.5658 124.065C90.6141 124.065 90.6867 124.037 90.7351 124.01C90.8318 124.01 90.9285 124.065 91.0494 124.065C91.5573 124.12 91.9444 123.928 92.1863 123.627C107.957 119.709 123.316 112.997 138.36 106.477C149.414 101.683 164.289 97.5466 173.142 88.2049C173.795 87.52 173.795 86.7256 173.456 86.0955V86.1777ZM92.5974 16.129C93.3714 15.8276 93.71 15.1154 93.7826 14.3757C114.415 34.2096 138.941 49.8247 162.62 64.4809C150.599 70.8913 138.65 77.4935 126.363 83.2464C114.56 88.7802 102.176 92.5333 90.3964 97.9575C90.2755 97.7657 90.1546 97.574 89.9611 97.4096C67.1281 78.1236 44.1741 58.8102 20.6638 40.5926C45.2141 35.2506 69.2081 25.7994 92.6216 16.129H92.5974ZM16.8179 61.7962C16.3584 61.4401 15.9231 61.3853 15.5361 61.4949C13.3834 54.5914 14.9314 48.6193 19.5996 43.1951C19.6721 43.1129 19.6963 43.0308 19.7447 42.976C22.0909 45.058 24.4612 47.1126 26.8316 49.1672C22.3327 51.7423 18.753 57.3035 18.5111 63.1112C17.9548 62.6729 17.3742 62.2346 16.8179 61.7962ZM20.4945 64.6179C21.4862 59.0294 23.4695 54.4818 28.0168 51.2492C28.2828 51.0575 28.4038 50.8109 28.4763 50.5643C30.0485 51.9341 31.5965 53.3038 33.1687 54.6736C28.2828 56.3447 24.5821 62.8373 25.598 68.5628C23.9049 67.2478 22.1876 65.9329 20.4945 64.6179ZM81.5679 113.025C63.9836 98.0945 45.6979 84.0683 27.5089 70.0421C27.6057 69.8777 27.7023 69.686 27.7023 69.412C27.7507 63.4947 30.0243 58.9198 34.9586 56.5912C35.0553 56.5364 35.1038 56.4816 35.1763 56.4268C52.3736 71.2475 69.8612 85.6572 87.3488 100.012C82.8499 102.313 80.9874 107.847 81.5437 113.025H81.5679ZM128.806 106.203C116.616 111.299 104.111 115.6 92.0654 121.106C91.8961 120.887 91.7026 120.723 91.4607 120.613C87.7116 118.942 84.4704 116.011 84.5914 110.997C84.6881 106.368 87.6148 103.272 91.0736 101.464C91.6057 101.19 91.7268 100.697 91.63 100.231C114.173 96.8069 137.078 83.8491 157.855 71.9871C157.928 73.8774 158.412 75.795 159.137 77.6305C137.054 87.0817 115.044 97.0261 93.299 107.436C92.525 107.82 93.0812 109.299 93.8794 108.998C116.035 100.067 138.07 90.5609 159.911 80.6713C160.129 80.5617 160.298 80.4248 160.443 80.2604C162.475 83.6848 165.474 86.3695 168.861 87.1091C157.589 96.2042 141.601 100.916 128.782 106.258L128.806 106.203Z" fill="#432A05"/>
<path d="M148.156 61.4948C142.326 57.9883 136.473 54.4543 130.644 50.9478C130.644 49.7698 129.821 48.5918 128.539 49.0849C111.221 55.5501 94.169 63.1659 77.8908 72.4802C77.7215 72.5623 77.6249 72.6993 77.5281 72.8637C77.4797 72.8637 77.4314 72.8089 77.3588 72.7815C76.5364 72.4802 76.101 73.6581 76.5848 74.2882C78.5923 76.9729 81.6158 78.781 84.1555 80.7534C87.0338 82.9998 89.9121 85.2188 92.8146 87.4104C93.9031 88.2322 94.9432 87.109 94.9432 85.931C95.1125 86.0132 95.3059 86.068 95.4994 86.0406C113.18 83.082 131.37 72.9459 147.72 65.1383C149.002 64.5356 149.607 62.3988 148.131 61.5222L148.156 61.4948ZM94.8463 84.2326C94.6286 84.3421 94.5319 84.5065 94.4594 84.6983C94.411 84.6435 94.3626 84.5887 94.3143 84.5339C91.4118 82.3697 88.4851 80.2055 85.5584 78.0961C83.7927 76.8085 82.0028 75.3292 80.1162 74.1512C95.959 67.0286 111.802 59.9881 127.862 53.5503C127.959 53.6599 128.056 53.7695 128.177 53.8516C133.159 56.8925 138.166 59.9333 143.149 62.9741C127.209 70.1242 109.891 75.384 94.8463 84.2326Z" fill="#432A05"/>
<path d="M142.999 63.1449L127.666 53.5934C125.749 52.3994 80.8999 73.1306 79.3666 73.5648C78.1399 73.9121 89.3331 80.9455 95.0831 84.4188L142.999 63.1449Z" fill="#FFCE48"/>
<path d="M164.047 86.5886C163.878 86.4243 163.709 86.2599 163.564 86.0681C163.056 85.5202 162.064 85.3559 161.556 86.0681C161.459 86.2051 161.387 86.3147 161.29 86.4516C160.806 87.1365 160.903 87.9584 161.266 88.5063C158.17 88.3419 155.195 89.0268 152.389 90.6157C149.511 91.7663 146.657 92.9168 143.778 94.0674C139.473 95.7933 135.143 97.4918 130.814 99.1629C120.727 103.08 110.545 106.751 100.507 110.833C99.7327 111.162 100.023 112.504 100.845 112.258C112.601 108.724 124.21 104.477 135.796 100.231C144.867 96.9165 155.388 94.4236 163.757 89.1637C164.555 88.6706 164.749 87.2735 164.047 86.5612V86.5886Z" fill="#432A05"/>
<path d="M73.9008 99.9847C71.1676 96.9712 66.8139 95.218 63.21 94.0126C62.436 93.766 62.1699 95.0262 62.8955 95.3549C64.7579 96.1768 66.572 97.0808 68.3377 98.1492C69.9341 99.108 71.4094 100.368 73.0541 101.19C73.7314 101.519 74.4813 100.642 73.9008 99.9573V99.9847Z" fill="#432A05"/>
<path d="M80.3097 98.7518C76.8025 96.3684 73.1986 94.0947 69.6188 91.8757C68.9174 91.4374 68.3369 92.588 68.99 93.0811C72.4246 95.6014 75.8834 98.1217 79.4148 100.505C80.4064 101.163 81.2772 99.4367 80.3097 98.7792V98.7518Z" fill="#432A05"/>
<path d="M87.6392 20.7039C83.3822 21.7997 79.4638 23.3064 75.0616 23.7173C73.8523 23.8269 73.8281 25.9363 75.0616 25.8815C79.5121 25.6897 84.3738 25.0596 88.389 22.7585C89.429 22.1558 88.6792 20.4299 87.6392 20.7039Z" fill="#432A05"/>
<path d="M92.864 21.4159C88.9698 23.3335 85.4868 24.8677 81.2782 25.6347C80.214 25.8265 80.48 27.7715 81.52 27.7441C85.7528 27.5798 90.4694 26.3744 94.0733 23.7719C95.4037 22.813 94.2427 20.731 92.864 21.4159Z" fill="#432A05"/>
</svg>
