<svg width="178" height="141" viewBox="0 0 178 141" fill="none" xmlns="http://www.w3.org/2000/svg">
<path d="M136.812 61.9545C137.394 61.2208 137.976 60.414 138.485 59.4612C143.279 50.8119 139.072 39.1472 130.702 34.5276C118.395 27.7214 106.816 33.3394 99.2975 43.0305C89.4906 30.1073 71.347 23.2944 60.1908 39.926C58.5836 42.3239 57.4821 44.9906 56.8564 47.7651C54.9963 47.1725 53.0861 46.8653 51.1625 46.88C43.0879 46.9696 35.5231 52.1845 33.0809 59.9909C31.8237 64.0039 32.163 68.5521 33.5607 72.5476C30.2804 73.533 27.1196 75.1616 24.1955 77.4915C19.0311 85.2518 20.0157 96.7517 24.1955 100.568C33.5607 109.117 44.0311 109.752 53.5311 102.252C60.087 110.462 74.5587 115.252 84.5311 112.252C92.7063 109.785 100.813 100.449 103.258 93.3739C108.86 100.711 119.551 103.888 126.976 96.7423C129.279 94.5246 130.585 91.8133 131.072 88.9881C140.829 87.0123 146.191 75.9252 140.737 66.8546C139.566 64.9062 138.222 63.3095 136.79 61.9619L136.812 61.9545Z" fill="#FBB800"/>
<path d="M129.099 58.2199C129.61 57.5756 130.121 56.8671 130.568 56.0304C134.778 48.4347 131.084 38.191 123.733 34.1341C112.925 28.157 102.757 33.0907 96.1543 41.6012C87.542 30.2523 65.3286 24.6458 55.5315 39.2515C54.12 41.3573 53.5315 53.3896 56.5314 54.7516C54.8979 54.2312 48.7207 50.7387 47.0314 50.7516C39.9404 50.8303 40.1487 49.64 38.004 56.4955C36.8999 60.0197 37.1979 64.0138 38.4254 67.5226C35.5447 68.388 32.7689 69.8182 30.201 71.8642C23.3108 77.3634 22.7026 81.5014 27.0315 89.7515C34.3628 103.72 46.2986 105.645 54.0314 93.7513C61.0314 107.751 74.7738 109.386 83.5314 106.751C90.7107 104.585 92.3843 98.3426 94.5314 92.1294C99.4507 98.5723 116.01 96.0263 122.531 89.7514C124.554 87.8037 123.631 84.4414 124.058 81.9604C132.626 80.2253 137.336 70.4888 132.545 62.5231C131.518 60.812 130.337 59.4099 129.08 58.2264L129.099 58.2199Z" fill="#FFCE48"/>
<path d="M128.896 57.9937C139.256 51.0785 135.588 35.0085 124.145 30.1812C113.976 25.8757 99.0679 31.1042 95.8836 41.8464C89.4638 32.8819 79.383 26.7401 67.8579 29.1908C57.3559 31.4182 50.5763 41.1283 52.4513 51.3099C45.6177 48.8566 37.2804 49.1081 33.4607 56.3054C31.0861 60.7689 32.9577 66.2401 36.7556 68.5953C26.8625 71.325 21.3195 83.0345 26.25 92.7216C31.4531 102.927 46.3257 105.547 53.9798 96.9084C55.4732 106.755 69.8318 110.745 78.6082 110.565C86.8214 110.379 98.0827 103.965 96.8263 94.8931C108.559 100.648 130.622 95.9335 127.552 81.1266C133.08 82.751 139.313 79.0846 140.679 73.1548C142.55 65.0287 135.736 60.1032 128.867 57.9792L128.896 57.9937ZM137.475 71.0386C137.294 77.2272 131.625 79.0922 126.552 78.0219C125.412 76.3805 122.52 77.5034 123.223 79.6584C126.177 88.6948 117.162 93.4472 109.63 93.915C104.635 94.2341 100.002 93.4546 95.6269 91.1236C94.7515 89.8323 92.3165 89.9953 92.558 91.94C93.8707 102.336 85.7116 107.092 76.201 106.544C66.6829 105.973 58.4921 102.465 55.7405 92.5789C55.5254 91.7971 54.414 91.9038 54.19 92.6141C53.7657 92.5865 53.2907 92.6981 52.8535 93.1386C45.9307 99.8212 34.7431 100.669 29.7762 91.0184C24.9493 81.6382 31.7886 72.2496 41.4521 70.7203C42.1685 70.6006 42.5616 70.1017 42.6472 69.5601C42.8445 69.4935 43.042 69.5001 43.2392 69.4335C45.0877 68.9071 44.5195 65.7056 42.5899 66.0641C39.9075 66.5791 37.4894 65.4181 36.4117 62.8769C35.0168 59.6128 37.0891 56.4231 39.8179 54.6718C44.1009 51.9564 49.1596 53.1292 53.5841 54.8822C53.8414 55.2104 54.2222 55.3259 54.5731 55.2807C54.7123 55.3313 54.8514 55.382 54.9687 55.4401C56.5951 56.136 57.7492 53.8422 56.2025 52.9485C55.9899 52.825 55.7335 52.7162 55.499 52.6001C52.9163 40.973 62.834 31.3752 74.4897 32.4202C84.3894 33.3256 91.3571 40.2254 95.8002 48.6856C96.9054 50.8025 99.9766 48.6915 98.8787 46.5965C98.5987 46.0563 98.2968 45.5236 97.9729 44.9982C99.7296 35.812 111.237 30.7063 119.883 32.5967C131.69 35.1771 135.654 50.1707 124.487 56.3577C123.458 56.9248 123.558 58.1605 124.16 58.9335C124.127 59.7017 124.51 60.4755 125.484 60.6839C130.732 61.8413 137.647 64.5356 137.46 70.9948L137.475 71.0386Z" fill="#432A05"/>
<path d="M126.522 39.8266C123.816 35.8581 117.608 34.6093 113.336 36.3445C112.306 36.7654 112.831 38.175 113.884 37.9662C115.915 37.5488 117.978 37.5847 119.955 38.2354C121.911 38.8935 123.181 40.1247 124.678 41.4502C125.72 42.3678 127.31 41.0012 126.522 39.8266Z" fill="#432A05"/>
<path d="M125.811 44.9495C123.768 42.5875 121.281 40.6442 118.199 39.9027C117.328 39.7085 116.96 40.9315 117.707 41.3382C120.067 42.6164 122.121 44.1445 123.586 46.4575C124.535 47.9679 126.927 46.2325 125.833 44.9421L125.811 44.9495Z" fill="#432A05"/>
<path d="M69.556 99.8765C67.6752 99.5838 66.1096 99.5021 64.5905 98.184C63.1374 96.9169 62.3041 95.172 62.2894 93.2484C62.2849 92.0782 60.2948 91.8957 60.2116 93.0955C59.8568 97.8292 64.4442 103.897 69.7264 102.333C70.9246 101.978 70.8148 100.062 69.5779 99.8691L69.556 99.8765Z" fill="#432A05"/>
<path d="M75.051 96.6296C73.7142 97.0809 72.6623 97.4361 71.2629 96.8344C69.9589 96.2981 68.9896 95.3071 68.626 93.9407C68.3662 92.9543 66.7363 93.2605 66.8646 94.2913C67.1212 96.3529 68.364 98.0816 70.1962 99.0254C71.9404 99.9257 74.5601 100.237 76.1935 98.9292C77.2946 98.0692 76.4973 96.1413 75.051 96.6296Z" fill="#432A05"/>
</svg>
