<svg width="100" height="91" viewBox="0 0 100 91" fill="none" xmlns="http://www.w3.org/2000/svg">
<path d="M70.9944 24.6254C70.4511 24.9024 69.88 25.2144 69.3006 25.5066C72.8881 15.517 57.0763 8.7338 52.2624 18.8467C51.3535 20.725 50.1518 22.8676 48.9099 25.1671C48.7546 24.6497 48.5811 24.1399 48.4522 23.6346C45.9805 14.8367 33.2124 12.6194 32.4229 23.1262C32.3576 23.8772 32.3187 24.6402 32.2534 25.3912C31.0089 24.8688 29.7632 24.3935 28.4717 23.9611C19.9947 21.2082 11.5693 33.1084 20.7107 39.2893C22.6827 40.6232 24.7173 41.9539 26.7325 43.3395C24.3741 44.3624 22.0352 45.3305 20.044 46.3145C10.402 51.1712 17.0463 67.2995 27.2532 63.3232C28.7876 62.7195 30.4219 62.0501 32.1066 61.4993C30.8432 64.9045 29.6256 68.9202 29.4777 69.4262C26.6524 78.6495 39.6416 88.0756 44.716 78.8789C46.0604 76.4192 47.4661 74.0036 48.8983 71.6001C53.0558 80.4534 67.7182 76.7817 65.123 66.6363C64.76 65.227 64.4416 63.8221 64.1316 62.437C66.8864 62.9025 69.6496 63.3878 72.4044 63.8533C83.5029 65.7517 85.1946 48.4232 74.713 45.5167C76.6212 43.9847 78.5209 42.4329 80.429 40.9009C87.9531 34.8187 79.9555 20.1739 71.004 24.598L70.9944 24.6254Z" fill="#FBB800"/>
<path d="M61.1068 31.3542C60.6221 31.6024 63.8272 24.8497 63.3101 25.1116C66.4422 16.0228 55.7737 12.1184 51.5431 21.3094C50.7442 23.0164 49.6848 24.9621 48.5909 27.0508C48.4472 26.5771 48.2874 26.1103 48.1676 25.648C45.8775 17.5959 35.9497 13.5842 35.3306 23.1688C35.2783 23.8537 54.3542 33.7282 53.2667 35.739C52.1467 35.2516 56.7833 43.6401 55.6217 43.2345C47.9986 40.65 41.612 35.7106 49.8597 41.4299C51.6389 42.6642 43.8714 44.039 45.6898 45.3208C43.5841 46.2347 50.1371 50.7394 48.3602 51.6209C39.7568 55.9731 19.9517 62.2796 29.0691 58.7359C30.4396 58.1977 55.3983 51.6732 56.904 51.1846C55.8001 54.2824 50.3367 57.8089 50.2084 58.2695C47.7531 66.6652 50.288 63.6311 54.7598 55.2786C55.9444 53.0446 47.5634 66.3455 48.8271 64.1635C53.4048 74.9637 67.8863 73.8227 65.4741 64.5395C65.1368 63.2499 63.9155 59.1579 63.6259 57.8909C66.0996 58.3391 68.4332 58.6035 70.9069 59.0516C80.8731 60.8782 79.5392 46.2021 70.1176 43.4605C71.8154 42.0781 74.6156 41.1551 76.3134 39.7727C83.0077 34.284 74.0278 25.3003 66.0398 29.2633L61.1068 31.3542Z" fill="#FFF9E4"/>
<path d="M57.5604 33.2601C51.9273 28.0652 44.2123 31.032 40.1445 36.4191C34.0976 41.0586 31.7336 52.9793 42.0571 55.4628C48.4692 57.0145 55.5864 55.6544 59.4381 50.0089C62.825 45.027 62.3576 37.6893 57.5869 33.2722L57.5604 33.2601Z" fill="#FFCE48"/>
<path d="M62.3532 30.7374C63.7874 27.9364 64.7772 24.7406 64.6405 21.6022C64.4922 18.2354 62.8027 14.7521 59.2691 14.36C55.1485 13.8901 52.7843 17.7152 51.2274 21.0815C50.7149 22.1853 50.2456 23.3408 49.8737 24.5249C49.2477 22.2939 48.2521 20.1962 46.6634 18.5598C44.4587 16.2747 40.8247 14.9919 38.0327 16.1987C32.8644 18.436 34.3565 24.8727 37.0935 29.8719C35.0306 28.2733 32.7889 27.007 30.3334 26.6946C26.8554 26.2323 23.0544 27.7735 21.8929 31.3687C20.0981 36.889 23.6354 40.7091 28.1092 42.6157C22.4602 45.1267 16.0755 50.6792 20.5092 56.3125C23.8735 60.5792 29.4626 60.8932 34.0379 59.1173C30.5502 64.5151 28.8002 71.6495 34.3949 75.6474C40.6373 80.1174 45.7566 71.8815 48.4389 64.9353C50.0123 71.6642 55.8232 78.1836 61.9134 73.5958C65.8703 70.6121 67.389 64.7423 66.0153 59.8418C71.1124 61.8109 76.7015 61.4717 78.552 55.2279C79.6548 51.4942 77.6608 47.3933 74.6897 45.0597C73.7021 44.2884 72.6551 43.729 71.5416 43.3144C73.0082 42.9027 74.3909 42.2933 75.6118 41.4025C78.3175 39.4392 80.1209 35.5484 78.281 32.0121C74.9572 25.6284 67.3567 27.3568 62.3616 30.7572L62.3532 30.7374ZM52.4279 24.8188C53.4259 22.2961 54.9442 18.3862 57.5238 17.4328C62.6205 15.5292 62.266 22.8886 61.4395 25.6653C60.7002 28.1951 59.4791 30.3925 58.116 32.5568C56.1014 31.4742 53.7362 31.1235 51.3497 31.2252C51.1521 28.9992 51.5932 26.9224 52.4182 24.8463L52.4279 24.8188ZM55.6335 52.3436C51.572 55.8849 44.8149 56.4858 41.6942 50.8327C39.2099 46.3796 39.5426 38.5161 43.6524 35.491C43.8292 35.556 44.0072 35.5739 44.2131 35.5566C48.5566 34.7421 54.9088 32.633 58.5421 37.1823C62.3482 41.9383 59.2272 49.2572 55.6599 52.3557L55.6335 52.3436ZM39.1309 18.7895C41.9642 17.3786 45.363 20.0676 46.6741 22.7082C48.027 25.4477 48.1831 28.5312 48.5754 31.4679C46.754 31.7966 44.9983 32.3308 43.4723 32.9542C43.3639 33.0002 43.3085 33.0704 43.2265 33.1284C42.6052 33.3218 42.0522 33.6262 41.5243 33.9899C39.7051 30.3515 34.1605 21.2929 39.1309 18.7895ZM28.9813 40.4496C26.1706 39.0979 23.2165 35.4972 24.5328 32.1162C25.9058 28.6179 30.4001 28.8128 33.2818 30.1811C35.7932 31.3797 37.8501 33.5174 39.904 35.4466C38.4274 37.1923 37.5391 39.6219 37.156 42.1874C37.0418 42.1191 36.9192 42.0311 36.7676 42.0254C35.7269 41.8832 34.685 41.7882 33.6444 41.646C33.4548 41.3998 33.1651 41.2193 32.8161 41.2506C32.5658 41.2633 32.2696 41.3189 31.9915 41.3667C30.9703 41.1697 29.9864 40.9101 28.9994 40.4419L28.9813 40.4496ZM38.3385 54.0281C34.6184 57.1681 28.6605 58.9002 24.0424 55.7482C17.54 51.3184 27.5479 45.8166 32.0323 43.7758C33.7561 44.0717 35.4155 44.115 36.8504 43.8801C36.9046 43.8571 36.9588 43.8341 37.013 43.8112C36.848 46.2375 37.1113 48.6689 37.7522 50.6837C38.0894 51.7307 38.5737 52.6219 39.0954 53.4507C38.9218 53.5942 38.7302 53.7455 38.5469 53.9165C38.4746 53.9471 38.4024 53.9777 38.3121 54.016L38.3385 54.0281ZM48.4352 58.5909C48.3357 58.9597 48.2627 59.3406 48.2078 59.7139C47.1589 61.8149 46.1629 63.9402 44.9999 65.973C43.64 68.3459 41.1227 73.5191 38.0226 73.5965C32.5915 73.7055 34.1822 66.1953 35.3802 63.5411C36.7971 60.3975 38.886 58.1356 40.9731 55.6178C43.074 57.457 45.7713 58.3902 48.5003 58.4933C48.4726 58.5284 48.4629 58.5559 48.4435 58.6107L48.4352 58.5909ZM61.2994 69.6331C58.1882 73.3549 53.8363 71.2333 52.0966 66.9779C50.9843 64.2531 51.314 61.3603 50.3978 58.6456C50.381 58.6061 50.3559 58.5467 50.3391 58.5072C50.3307 58.4874 50.3223 58.4676 50.3056 58.4281C52.0424 58.2518 53.7703 57.7528 55.257 56.936C56.3991 56.3119 57.4837 55.5022 58.4569 54.5298C58.5491 54.7473 58.6413 54.9649 58.8323 55.1639C59.7701 56.1196 60.9054 57.0382 62.1685 57.856C64.2897 61.5531 64.1441 66.1876 61.273 69.621L61.2994 69.6331ZM75.6573 54.3318C73.6308 60.1602 67.7892 57.9934 63.4917 55.1954C62.7028 54.3399 61.732 53.6082 60.6044 53.0596C60.5431 53.0156 60.4734 52.9518 60.4122 52.9078C60.2896 52.8198 60.1754 52.7515 60.0696 52.703C61.8482 50.3626 63.0347 47.48 63.3766 44.4654C68.4347 44.9345 78.1997 46.9549 75.6573 54.3318ZM70.9436 40.3949C68.5124 41.1454 65.9561 41.249 63.3839 40.9627C63.2738 40.0995 63.1011 39.2395 62.8296 38.398C62.3441 36.9006 61.6269 35.7114 60.7878 34.7373C63.9137 31.4525 70.5979 28.3161 74.7288 31.9779C78.9641 35.7354 74.0864 39.4127 70.9436 40.3949Z" fill="#432A05"/>
<path d="M53.5576 37.544C51.7474 37.1448 50.2879 37.6234 48.9534 38.749C48.4688 39.1644 48.995 40.1545 49.5841 39.8348C51.867 38.6339 54.2894 39.8236 55.9606 41.7049C56.7662 42.6 58.3755 41.8713 57.7583 40.6163C56.9206 38.9416 55.244 37.9025 53.5576 37.544Z" fill="#432A05"/>
<path d="M34.7605 51.671C31.6614 53.0079 29.1289 53.8713 25.6045 53.1488C25.0187 53.0238 24.7953 54.0051 25.3701 54.2047C28.7131 55.3541 32.8635 55.3914 35.6885 53.3074C36.4816 52.7146 35.6458 51.2958 34.7424 51.6787L34.7605 51.671Z" fill="#432A05"/>
</svg>
