<svg width="58" height="65" viewBox="0 0 58 65" fill="none" xmlns="http://www.w3.org/2000/svg">
<path d="M11.496 8.72307C10.5502 9.03208 9.62366 9.41833 8.84191 9.75631C7.74167 10.2295 6.88271 10.7509 6.12026 11.4076C5.36747 12.0642 4.81733 12.9719 4.32512 13.8603L4.1707 14.1307C3.38895 15.5502 2.58791 17.0084 1.94127 18.5245C1.24639 20.1468 0.532198 21.8173 0.281266 23.5942C0.155801 24.5308 0.0110537 25.6124 0.00140253 26.7036C-0.0178999 27.7948 0.165479 28.9149 0.339201 29.8806C0.638388 31.5705 1.25604 33.1735 1.82546 34.5157C2.53965 36.2153 3.41793 37.9921 4.49887 39.9427C6.62213 43.7667 8.67783 46.6154 10.9748 48.904C12.1619 50.0917 13.5999 51.2891 15.4819 52.67C16.891 53.7033 18.3387 54.6207 19.796 55.3835C20.7225 55.876 21.707 56.3009 22.6528 56.7161C23.2898 56.9962 23.9557 57.2859 24.6023 57.5949C25.1235 57.8459 25.6446 58.0874 26.1658 58.3288C27.0827 58.7537 28.0382 59.1979 28.955 59.6614C29.6982 60.0283 30.4509 60.3856 31.2037 60.7429C31.5994 60.936 32.0048 61.1195 32.4005 61.3126C32.8444 61.5251 33.2788 61.7472 33.7227 61.9693C34.2921 62.259 34.8905 62.5583 35.4792 62.8287C36.8883 63.4854 38.3553 63.9585 39.4748 64.3062C40.3048 64.5572 41.5305 64.789 42.6211 64.4317C42.901 64.3448 43.1519 64.2193 43.3835 64.0551C43.4222 64.0261 43.4608 63.9972 43.4994 63.9778C43.5669 63.9585 43.6442 63.9392 43.7214 63.9103C44.0495 63.804 44.5128 63.5916 44.8023 63.215C45.42 62.4231 46.221 61.3706 46.9642 60.2408C47.4853 59.4489 47.9775 58.6281 48.4311 57.8653C49.3094 56.3782 50.3131 54.6496 51.0949 52.8342L51.2203 52.5445C51.616 51.6368 52.0118 50.7098 52.3399 49.7634C52.6294 48.9233 52.9093 48.0542 53.1699 47.2237C53.3533 46.6443 53.5463 46.0553 53.7297 45.4759C54.0964 44.3461 54.4535 43.2163 54.8106 42.0768C55.3414 40.3483 55.8336 38.5811 56.3065 36.6595C56.7312 34.9116 57.1752 33.1059 57.5322 31.2711C57.7349 30.2185 57.9279 29.0791 57.9762 27.9686C58.0148 27.0802 58.0052 26.1724 57.9569 25.2068C57.9279 24.666 57.9183 24.1349 57.899 23.5942C57.8604 22.3581 57.8217 21.0738 57.6673 19.8281C57.5419 18.8142 57.3392 17.8099 57.1365 16.8249L57.0593 16.458C57.0014 16.1972 56.9532 15.9268 56.9049 15.6661C56.7987 15.0964 56.6829 14.4977 56.5381 13.9279C56.2969 12.9913 55.9688 12.1029 55.602 11.1179C55.2546 10.1715 54.8299 9.08035 54.2798 8.06641C53.9227 7.40011 53.4884 6.77243 53.0637 6.16407L52.9865 6.05785C52.3978 5.19842 51.7222 4.23276 50.8826 3.46989C50.1008 2.76496 49.2225 2.13729 48.3443 1.6448C47.244 1.03644 46.0666 0.708124 44.7251 0.630871C43.509 0.563275 42.3026 0.727431 41.3857 0.881936C41.0093 0.939876 40.6137 1.03644 40.218 1.17164C39.5907 1.37442 38.9344 1.67377 38.2202 2.06004C37.2165 2.61046 36.3189 3.33471 35.4889 4.02998C34.9098 4.51281 34.35 5.10186 33.7902 5.8261C32.6321 7.32287 31.5801 8.92584 30.5764 10.7316C30.1518 11.4945 29.7561 12.2863 29.37 13.0492L29.3411 13.1071L29.2349 13.3196L29.1287 13.532C29.0515 13.4548 28.9743 13.3872 28.8971 13.3099C28.0575 12.5664 27.1599 11.8614 26.2334 11.2048C25.3937 10.6061 24.5348 10.1136 23.7048 9.71769C22.7589 9.27349 21.7456 8.91619 20.404 8.54924C19.2362 8.23058 18.136 8.02778 17.0454 7.94087C15.8583 7.84431 14.7388 7.97951 13.8123 8.13402C13.0788 8.24989 12.326 8.44302 11.496 8.70375V8.72307Z" fill="#FBB800"/>
<path d="M3.14765 19.7898C2.97393 19.9733 2.80023 20.1471 2.62651 20.3209C2.31767 20.7362 2.13428 21.19 2.06672 21.7018C1.83509 22.6964 1.59382 23.6911 1.4394 24.6953C1.37184 25.1106 1.36219 25.5355 1.35254 25.9603C1.35254 26.4239 1.3622 26.8681 1.39115 27.3219C1.42976 28.0944 1.67104 28.8959 1.90266 29.6298C2.1922 30.5665 2.52032 31.4742 2.93532 32.3626C3.33102 33.2028 3.76534 34.0139 4.2479 34.8154C5.32884 36.6212 6.41943 38.427 7.72234 40.0879C8.26281 40.7735 8.87083 41.3915 9.46921 42.0288C10.0869 42.6855 10.7045 43.3518 11.3222 44.0084C12.4032 45.1576 13.5709 46.2294 14.787 47.2337C15.8679 48.1318 16.8331 49.1457 17.8947 50.0728C18.9177 50.9708 20.0083 51.8013 21.1278 52.5835C22.2667 53.3753 23.4924 54.0223 24.6988 54.6982C26.5711 55.7894 28.347 57.0062 30.1035 58.2615C31.3002 59.1113 32.6224 59.7872 33.9254 60.4439C34.4176 60.695 34.9291 60.9267 35.4502 61.1295C36.01 61.3516 36.5601 61.593 37.1296 61.8055C37.8824 62.0758 38.6641 62.1048 39.3976 61.7765C40.0925 61.4771 40.6523 60.8978 40.9418 60.2025C41.5305 58.7733 40.8356 56.9289 39.3397 56.3881C37.699 55.7894 36.1065 55.0459 34.572 54.2154C33.1918 53.3753 31.9179 52.3517 30.5571 51.4729C29.148 50.5652 27.6907 49.7251 26.2333 48.9043C24.4768 47.8711 22.7975 46.6736 21.2919 45.3024C20.4523 44.5395 19.6609 43.7187 18.7923 42.9848C18.0009 42.3089 17.2095 41.6426 16.4567 40.9376C15.8969 40.3679 15.3661 39.7885 14.816 39.2091C14.1404 38.4849 13.4358 37.7703 12.7796 37.0171C11.5539 35.6265 10.5694 34.0429 9.60431 32.4689C9.18931 31.7639 8.78396 31.059 8.43652 30.3251C8.02152 29.4464 7.67407 28.5676 7.37488 27.6502C7.27837 27.1964 7.21082 26.7425 7.17221 26.279C7.24942 24.985 7.57758 23.72 7.87676 22.4647C8.05048 21.7404 7.71269 20.8327 7.26873 20.2726C6.79582 19.6739 6.10092 19.2877 5.34812 19.1911C4.91382 19.1332 4.47953 19.1814 4.06453 19.3166C3.73638 19.4229 3.42754 19.587 3.15731 19.7995L3.14765 19.7898Z" fill="#FFF9E4"/>
<path d="M38.1331 3.51835C37.3514 3.91427 36.5503 4.31984 35.8168 4.80266C35.1316 5.25652 34.5622 5.82627 34.0217 6.45394C33.0373 7.59341 32.1783 8.8198 31.4448 10.1234C30.9719 10.9732 30.499 11.8133 30.1902 12.7307C29.9103 13.5805 29.7366 14.4592 29.5822 15.3283C29.3312 16.7285 29.3216 18.1867 29.254 19.5965C29.2154 20.4077 29.3409 21.1319 29.8621 21.7886C30.335 22.3873 31.0299 22.7735 31.7826 22.8701C32.5547 22.9666 33.3558 22.7445 33.9735 22.2617C34.5236 21.8272 35.0254 21.074 35.0544 20.3401C35.1026 19.3648 35.1316 18.3798 35.2185 17.4045C35.2957 16.6126 35.4211 15.8304 35.5756 15.0483C35.73 14.5461 35.9134 14.0633 36.1643 13.5901C36.2994 13.3391 36.4345 13.0783 36.5793 12.8273C37.2259 11.8133 37.9208 10.8477 38.7122 9.93996C38.8956 9.7758 39.0886 9.63095 39.2913 9.4861C39.6773 9.27365 40.073 9.06122 40.4784 8.85843C41.1732 8.50114 41.7137 8.0183 42.0226 7.28441C42.3218 6.56016 42.3121 5.72969 41.9936 5.01511C41.6944 4.31984 41.1153 3.75976 40.4205 3.47006C39.8317 3.22865 39.079 3.16105 38.4516 3.3735C38.3455 3.40247 38.249 3.45076 38.1524 3.49904L38.1331 3.51835Z" fill="#FFF9E4"/>
<path d="M10.6565 10.6542C9.68171 11.2722 8.83242 11.9481 8.07962 12.8269C6.99869 14.0822 6.61263 15.7528 6.25553 17.3268C5.83088 19.1905 5.74403 21.1122 5.96601 23.0145C6.20729 25.0521 6.603 27.0896 7.42335 28.9823C8.15684 30.6819 8.93859 32.3717 9.83615 33.9941C10.8013 35.7322 11.8726 37.3932 13.0886 38.9672C14.1502 40.3577 15.3663 41.6034 16.6113 42.8201C17.9625 44.1431 19.3522 45.3984 20.8578 46.5572C22.2958 47.6677 23.7725 48.701 25.3167 49.657C26.2046 50.2074 27.0925 50.7771 27.9901 51.3179C29.0903 51.9842 30.2195 52.5829 31.339 53.2106C32.8929 54.1086 34.4371 55.0357 36.0681 55.7985C36.8692 56.1752 37.6702 56.5807 38.4616 56.9766C39.0793 57.2856 39.7259 57.5464 40.3436 57.865C40.4208 57.9133 40.498 57.9616 40.5752 58.0099C41.2508 58.4444 41.9264 58.6859 42.7468 58.57C43.5092 58.4638 44.2041 58.0485 44.6673 57.4305C45.1306 56.8125 45.3333 56.0303 45.2271 55.2578C45.1306 54.5432 44.7156 53.732 44.0882 53.3265C42.7467 52.467 41.2991 51.8683 39.8803 51.1634C38.6932 50.5647 37.4772 50.0239 36.3094 49.3769C34.9196 48.5851 33.5298 47.7933 32.1401 47.0111C31.1363 46.422 30.1519 45.7944 29.1675 45.186C28.1252 44.539 27.0925 43.8824 26.0888 43.1581C24.255 41.8448 22.5082 40.435 20.8771 38.8706C19.9313 37.9339 19.0048 36.9779 18.1555 35.9447C17.229 34.8148 16.3893 33.6078 15.6172 32.3717C14.9706 31.2612 14.3818 30.1121 13.8221 28.9437C13.2527 27.7366 12.6929 26.5199 12.2779 25.2549C11.9401 23.8643 11.7374 22.4448 11.6699 21.0253C11.7085 19.8955 11.8919 18.785 12.1524 17.6841C12.2586 17.3268 12.3841 16.9792 12.5385 16.6316C12.606 16.5447 12.6736 16.4481 12.7411 16.3612C13.2237 15.9363 13.7449 15.579 14.295 15.2314C14.903 14.8548 15.2891 13.9953 15.3759 13.3097C15.4724 12.5372 15.2505 11.7357 14.7679 11.1177C14.295 10.519 13.6001 10.1327 12.8473 10.0361C12.5867 10.0361 12.3262 10.0361 12.0656 10.0361C11.8919 10.0651 11.7181 10.1037 11.5637 10.152C11.2356 10.2582 10.9364 10.4224 10.6661 10.6348L10.6565 10.6542Z" fill="#FBB800"/>
<path d="M44.2908 2.3977C43.316 2.82259 42.3703 3.34405 41.5402 3.99104C40.8743 4.50283 40.2566 5.10155 39.6389 5.67128C39.0792 6.19274 38.5291 6.74316 38.0272 7.33221C37.6991 7.70882 37.4385 8.16266 37.1779 8.58755C36.4444 9.77531 35.7592 10.992 35.1029 12.2184C34.601 13.1551 34.186 14.1497 33.8096 15.1444C33.4332 16.1486 33.1244 17.1529 32.9314 18.2151C32.8252 18.8235 32.7673 19.4319 32.719 20.0499C32.6515 20.8417 32.8252 21.6046 33.3271 22.2419C33.8 22.831 34.4949 23.2269 35.2476 23.3235C36.7822 23.5166 38.3843 22.3771 38.5194 20.7934C38.587 20.0016 38.6738 19.2194 38.8379 18.4372C39.3977 16.6508 40.218 14.9416 41.1253 13.3096C41.6657 12.3729 42.2158 11.4362 42.901 10.6058C43.2774 10.2388 43.6732 9.88153 44.0689 9.52424C44.5611 9.07038 45.0629 8.63584 45.613 8.24958C46.0763 7.99851 46.5492 7.76675 47.051 7.58328C47.2634 7.53499 47.4757 7.50602 47.6881 7.47705C47.746 7.47705 47.8039 7.49636 47.8618 7.50602C48.132 7.60259 48.3926 7.72812 48.6435 7.85366C48.7593 7.93091 48.8655 8.01781 48.9717 8.10472C49.3674 8.54892 49.6955 9.0221 50.014 9.52424C50.3228 10.094 50.5641 10.7023 50.8054 11.3011C51.0081 11.8225 51.2011 12.344 51.3652 12.8847C51.4617 13.3193 51.5292 13.7442 51.5485 14.198C51.5871 14.9416 52.1083 15.6948 52.6874 16.1293C53.3051 16.5928 54.0868 16.7956 54.8589 16.6894C55.6213 16.5832 56.3162 16.1679 56.7891 15.5499C57.2814 14.8933 57.3875 14.1787 57.3489 13.3772C57.291 12.3053 56.9821 11.2914 56.654 10.2678C56.3934 9.4663 56.0749 8.68412 55.7371 7.91159C55.3318 6.97491 54.7624 6.11549 54.2026 5.26571C53.9903 4.93739 53.7394 4.64769 53.4788 4.35799C53.0927 3.94276 52.6777 3.54684 52.2241 3.20886C51.8091 2.89985 51.3072 2.66809 50.844 2.42668C50.0043 2.00179 49.0489 1.68312 48.1031 1.64449C47.0993 1.60587 46.0859 1.76038 45.1305 2.07904C44.8506 2.17561 44.5707 2.28183 44.2908 2.3977Z" fill="#FBB800"/>
<path d="M9.5656 10.567C8.98652 10.7988 8.42673 11.0981 7.91522 11.4458C7.3844 11.8031 6.8922 12.2183 6.4772 12.7108C6.1008 13.155 5.79197 13.6282 5.49279 14.111C5.1743 14.6324 4.85578 15.1829 4.62416 15.7429C4.50834 16.023 4.40218 16.3127 4.29602 16.6024C4.11264 17.1142 4.01615 17.655 3.94859 18.1957C3.87138 18.8137 3.84241 19.4414 3.87136 20.0691C3.89066 20.6581 3.90998 21.2472 3.97754 21.8266C4.13196 23.0819 4.3829 24.318 4.73999 25.5347C5.07779 26.6645 5.44453 27.775 5.88849 28.8759C6.33245 29.9767 6.8343 31.0293 7.38441 32.0818C7.96349 33.202 8.63906 34.2835 9.305 35.3651C9.59453 35.8382 9.90337 36.3018 10.2122 36.7653C10.5404 37.2481 10.8685 37.7406 11.2256 38.2041C12.6926 40.0871 14.3043 41.8639 15.945 43.5924C16.7557 44.4519 17.6147 45.2823 18.4833 46.0838C19.3326 46.866 20.2109 47.6192 21.1374 48.3145C23.0676 49.7726 25.0268 51.1825 27.1501 52.3509C29.2251 53.5001 31.3966 54.4657 33.5971 55.3638C35.3922 56.0977 37.197 56.8316 39.0018 57.5558C40.8645 58.2994 42.6885 59.1491 44.5609 59.8734C45.1206 60.0858 45.7673 59.8348 45.9892 59.2747C46.0761 59.0622 46.0857 58.8401 46.0375 58.6277C46.2595 58.2607 46.5008 57.9035 46.7131 57.5269C46.9737 57.073 47.186 56.5902 47.4176 56.117C47.6492 55.6342 47.8905 55.161 48.1222 54.6782C48.3731 54.1567 48.6626 53.6546 48.9328 53.1428C49.454 52.1578 49.8787 51.1149 50.284 50.0816C50.6701 49.0967 50.8921 48.3145 51.4325 47.1364C55.1514 37.5682 56.4994 16.7955 56.7793 15.8781C56.0072 15.9554 55.8679 14.6282 54.5788 15.8781C55.1514 17.8541 51.4325 42.2279 48.653 48.2083C48.2476 49.2126 47.8712 50.2361 47.4176 51.2308C46.9447 52.264 46.3753 53.2393 45.8831 54.2533C45.497 55.0451 45.1303 55.8466 44.7056 56.6191C44.5512 56.8799 44.3871 57.1309 44.2231 57.3917C43.4606 57.073 42.6982 56.7447 41.9357 56.4164C40.8355 55.9432 39.716 55.499 38.6061 55.0451C37.5637 54.6299 36.5311 54.1953 35.4887 53.7801C34.3595 53.3166 33.2303 52.8627 32.1205 52.3703C31.3773 52.0419 30.6438 51.704 29.92 51.3563C29.2444 51.028 28.5978 50.6707 27.9415 50.3134C26.2911 49.3381 24.6987 48.2759 23.1641 47.1267C22.3245 46.4894 21.4848 45.8328 20.6838 45.1471C19.9889 44.5581 19.3422 43.9208 18.686 43.2931C17.9428 42.5399 17.1997 41.7867 16.4952 41.0045C15.752 40.1837 15.0089 39.3436 14.285 38.5034C13.5805 37.673 12.8856 36.8425 12.2776 35.9348C11.6503 34.9981 11.0519 34.0614 10.4632 33.1054C9.71036 31.8308 8.97687 30.5368 8.38815 29.1752C8.06001 28.4123 7.75115 27.6495 7.46161 26.8673C7.21068 26.201 7.00801 25.5154 6.80534 24.8298C6.70882 24.4532 6.60267 24.0766 6.51581 23.6999C6.40965 23.2268 6.32278 22.7536 6.23592 22.2804C6.1008 21.4886 6.06221 20.6775 6.03325 19.8856C6.05255 19.1421 6.09114 18.3888 6.25521 17.6646C6.45789 16.9886 6.75709 16.3513 7.08523 15.7236C7.23965 15.4629 7.39406 15.1925 7.55813 14.9415C7.78011 14.6035 8.01173 14.2945 8.27231 13.9951C8.40743 13.8599 8.5522 13.7344 8.69697 13.5992C8.88034 13.435 9.10232 13.2998 9.305 13.1646C9.63314 12.9812 9.96129 12.7977 10.3087 12.6529C10.6948 12.4983 11.0712 12.3632 11.4669 12.2376C11.9301 12.1217 12.3934 12.0059 12.8566 11.9576C13.3295 11.8996 13.8025 11.8707 14.285 11.861C15.337 11.919 16.3793 12.0542 17.412 12.2956C17.7498 12.4018 18.0876 12.508 18.4157 12.6432C18.8114 12.7977 19.1975 12.9812 19.5739 13.1646C20.2205 13.4737 20.8479 13.8213 21.4752 14.1786C21.4655 14.1786 21.4462 14.1593 21.4269 14.1496C22.1218 14.5455 22.7974 14.9608 23.4633 15.4146C24.1003 15.8492 24.7083 16.332 25.3067 16.8148C26.4938 17.7901 27.6423 18.7944 28.7425 19.8566C29.1768 20.2815 29.5919 20.7064 30.0165 21.141C30.4894 21.6238 30.9623 22.1259 31.4835 22.5605C31.7634 22.7922 32.0915 23.0047 32.4583 23.053C32.9891 23.1206 33.4813 22.8212 33.7901 22.4156C33.8866 22.2804 33.9735 22.0873 34.0507 21.9328C34.1569 21.6914 34.2148 21.421 34.2823 21.1699C34.3209 21.0154 34.3595 20.8609 34.3981 20.7064C34.5332 20.098 34.6684 19.4897 34.8228 18.891C35.2281 17.5004 35.701 16.1389 36.2126 14.7966C36.4828 14.1013 36.753 13.4061 37.0715 12.7301C37.4093 12.0252 37.7567 11.3299 38.1331 10.6443C38.3551 10.2677 38.5771 9.88142 38.7991 9.51447C39.0693 9.06062 39.3782 8.61641 39.6774 8.18186C40.2468 7.33209 40.8934 6.53059 41.569 5.76773C41.7813 5.54563 42.0033 5.33318 42.2252 5.12074C42.6402 4.73448 43.0939 4.41581 43.5668 4.1068C43.6343 4.06817 43.6923 4.02955 43.7598 3.99092C44.059 3.81711 44.3582 3.68192 44.6863 3.58535C45.0917 3.48879 45.4874 3.4405 45.8927 3.41153C46.134 3.41153 46.3753 3.43085 46.6262 3.45982C46.8482 3.48879 47.0605 3.53707 47.2825 3.58535C47.8712 3.76883 48.4214 4.02955 48.9715 4.31924C49.4154 4.60894 49.8304 4.91795 50.2261 5.25593C50.8728 5.92223 51.4036 6.6851 51.8958 7.45762C52.7837 9.00267 53.4207 10.6829 53.9515 12.3825C54.2217 13.3771 54.4244 14.3717 54.5305 15.3953C54.5498 15.5595 54.5595 15.714 54.5788 15.8781C55.3123 15.8009 56.0554 15.8009 56.7793 15.8781C56.7117 15.1442 56.6249 14.4103 56.4994 13.6764C56.2967 12.479 55.9203 11.3106 55.515 10.1615C55.1579 9.14752 54.7622 8.11428 54.241 7.16794C53.6716 6.12503 53.0249 5.11108 52.2432 4.21302C51.8378 3.74951 51.3843 3.3536 50.8921 2.97699C50.3902 2.60039 49.8497 2.30103 49.2899 2.02099C48.18 1.46091 46.8965 1.16155 45.6515 1.22915C44.696 1.28709 43.7598 1.48988 42.9105 1.96305C42.1867 2.35897 41.4725 2.82249 40.8644 3.39222C40.3529 3.87505 39.88 4.37719 39.4168 4.89864C39.05 5.31387 38.7219 5.75807 38.3937 6.19262C38.0656 6.61751 37.7664 7.07137 37.4769 7.52523C37.168 8.00805 36.8592 8.50054 36.5697 9.00268C36.0195 9.96833 35.4598 10.9533 35.0062 11.9769C34.5719 12.9715 34.1762 13.9758 33.7998 14.9994C33.462 15.9168 33.1435 16.8341 32.8733 17.7708C32.632 18.6109 32.4486 19.4511 32.2459 20.3008C31.4835 19.5476 30.7403 18.7655 29.9682 18.0316C29.1382 17.2397 28.2793 16.4672 27.401 15.7236C26.5517 15.0091 25.6927 14.2945 24.7759 13.6668C23.7818 12.9812 22.7298 12.3921 21.6682 11.8031C21.1663 11.523 20.6452 11.2623 20.1336 11.0112C19.6318 10.7698 19.1106 10.5381 18.5798 10.3739C17.441 10.0263 16.2539 9.78486 15.0668 9.71727C13.8604 9.64967 12.625 9.6883 11.4476 9.98765C11.0615 10.0842 10.6658 10.2001 10.2894 10.3256C10.0482 10.4029 9.80686 10.4898 9.57523 10.5864L9.5656 10.567Z" fill="#432A05"/>
<path d="M5.56055 14.1116C4.74985 15 3.99706 15.956 3.41798 17.0183C2.88717 17.9839 2.47218 19.0075 2.07648 20.0311C1.84485 20.6298 1.62288 21.2285 1.44916 21.8465C1.28509 22.4163 1.16928 22.9763 1.09207 23.5654C0.947302 24.7145 1.01484 25.8926 1.21751 27.0224C1.42984 28.2005 1.7387 29.369 2.1151 30.5085C2.45289 31.561 2.95475 32.5556 3.43731 33.5503C3.55312 33.782 3.66892 34.0138 3.78473 34.2455C3.78473 34.2552 3.7944 34.2649 3.80406 34.2745C3.83301 34.3421 3.86195 34.4097 3.91021 34.4773C3.93916 34.5352 3.96812 34.5932 4.00672 34.6415C4.00672 34.6415 4.00673 34.6511 4.01638 34.6608C4.01638 34.6608 4.02602 34.6801 4.03568 34.6898C4.06463 34.7477 4.09358 34.796 4.12253 34.8539C4.19974 34.9891 4.27694 35.1243 4.35415 35.2595C4.65334 35.7713 4.96218 36.2734 5.29032 36.7659C6.49672 38.62 7.7707 40.4354 9.02536 42.2508C9.68164 43.1972 10.309 44.1725 11.0135 45.0898C11.7373 46.0362 12.5094 46.9342 13.3298 47.7937C14.0826 48.5759 14.8354 49.3387 15.6171 50.0823C16.4085 50.8355 17.2482 51.5404 18.1168 52.2164C18.9757 52.8923 19.8926 53.4911 20.7902 54.0994C21.736 54.7464 22.7011 55.3741 23.6759 55.9728C24.6603 56.5715 25.6447 57.1509 26.6484 57.7303C27.6039 58.2807 28.5787 58.8022 29.5438 59.3333C30.5282 59.874 31.5416 60.3569 32.6032 60.7431C32.8445 60.83 33.0954 60.9169 33.3464 60.9942C33.5877 61.0714 33.8386 61.1777 34.0992 61.2356C34.1281 61.2356 34.1474 61.2549 34.1764 61.2646C34.2536 61.3032 34.3308 61.3225 34.4177 61.3418C36.2997 61.9309 38.2492 62.4234 40.2373 62.4716C40.469 62.4716 40.7006 62.4717 40.9322 62.4523C41.2411 62.4234 41.5306 62.3461 41.8298 62.2785C42.322 62.1626 42.7756 61.9116 43.1906 61.6412C43.6249 61.3611 44.0013 60.9845 44.3487 60.6079C44.5032 60.4438 44.6576 60.2796 44.8216 60.1154C44.9761 59.9609 45.1402 59.8064 45.2753 59.623C45.449 59.3815 45.5455 59.1305 45.5166 58.8215C45.4876 58.5318 45.3428 58.2614 45.1208 58.0779C44.6865 57.7206 43.9241 57.7399 43.5767 58.2324C43.4126 58.4642 43.1906 58.6476 42.9976 58.8504C42.7949 59.0532 42.6115 59.2657 42.4088 59.4685C42.1772 59.6712 41.9359 59.8451 41.6753 59.9996C41.492 60.0865 41.299 60.1541 41.0963 60.212C40.7875 60.27 40.469 60.2893 40.1505 60.2893C38.9924 60.2217 37.8342 60.0092 36.7146 59.7195C36.0873 59.5554 35.46 59.3719 34.8327 59.1884C34.8327 59.1884 34.8134 59.1884 34.8037 59.1884C34.8037 59.1884 34.8037 59.1884 34.7941 59.1884C34.7265 59.1595 34.659 59.1401 34.5914 59.1208C33.7614 58.8601 32.9507 58.5801 32.1593 58.2034C31.2328 57.7689 30.3352 57.2668 29.4377 56.7743C28.5497 56.2915 27.6715 55.799 26.7932 55.2968C25.9632 54.8237 25.1429 54.3312 24.3322 53.8194C23.5022 53.2786 22.6721 52.7378 21.8518 52.1778C20.9832 51.5791 20.1049 50.99 19.2749 50.3334C17.6535 49.0587 16.1865 47.6102 14.7582 46.1231C14.0536 45.3602 13.378 44.5587 12.7411 43.7283C12.0365 42.8109 11.4092 41.8259 10.7529 40.8796C9.49825 39.0545 8.22429 37.2487 7.01789 35.3947C6.6608 34.8346 6.31335 34.2745 5.98521 33.6951C5.95625 33.6372 5.9273 33.5889 5.89835 33.5406C5.8694 33.4634 5.84046 33.3958 5.7922 33.3378C5.7922 33.3185 5.7729 33.3089 5.76325 33.2895C5.56057 32.8936 5.36753 32.488 5.17451 32.0825C4.80776 31.3099 4.46032 30.5471 4.18044 29.7456C3.92951 29.0117 3.73649 28.2681 3.55312 27.5149C3.34079 26.5106 3.21532 25.5064 3.21532 24.4828C3.24427 24.1158 3.28288 23.7489 3.34079 23.3916C3.39869 23.015 3.4952 22.648 3.60136 22.2907C3.85229 21.5085 4.1515 20.736 4.46999 19.9828C4.82709 19.1427 5.19381 18.3219 5.65707 17.5397C6.12998 16.8155 6.6801 16.1492 7.25917 15.5118C7.66453 15.0676 7.55837 14.3337 7.11441 13.9668C6.80557 13.7157 6.42918 13.6674 6.09139 13.7737C5.89836 13.8413 5.71498 13.9571 5.57021 14.1116H5.56055ZM5.98521 33.7241C5.98521 33.7241 6.00451 33.7627 6.01416 33.782C6.00451 33.7627 5.99486 33.7434 5.98521 33.7241ZM34.4949 59.0918C34.4949 59.0918 34.5335 59.1015 34.5624 59.1112C34.5624 59.1112 34.5238 59.1015 34.4949 59.0918Z" fill="#432A05"/>
<path d="M39.0115 3.15097C38.4614 3.39238 37.9113 3.65311 37.3901 3.95247C36.8786 4.24216 36.4153 4.58013 35.9521 4.93742C35.0256 5.67132 34.2148 6.56939 33.462 7.4771C32.6803 8.40413 31.9951 9.37944 31.3967 10.4224C30.7308 11.5811 30.1806 12.7882 29.7367 14.0532C29.4858 14.7775 29.2638 15.5113 29.0804 16.2549C29.0032 16.5639 28.926 16.8729 28.8584 17.1723C28.8198 17.3171 28.7909 17.4523 28.7619 17.5875C28.7426 17.6744 28.7233 17.7613 28.704 17.8386C28.6654 18.0317 28.6558 18.2152 28.6558 18.418C28.6558 18.698 28.8391 18.9877 29.0515 19.1615C29.2734 19.345 29.563 19.4319 29.8525 19.403C30.142 19.374 30.4123 19.2291 30.5956 19.007C30.7501 18.8139 30.8176 18.6111 30.8369 18.389C30.9141 17.8965 31.0589 17.4137 31.1747 16.9405C31.3002 16.4191 31.4449 15.9169 31.5994 15.4051C31.8503 14.623 32.1398 13.8504 32.4776 13.1165C32.8444 12.315 33.269 11.5425 33.7323 10.7893C34.5912 9.48567 35.6046 8.28825 36.7145 7.1874C37.3225 6.64663 37.9691 6.15415 38.6737 5.73892C40.1021 4.99536 41.6366 4.48357 43.1712 3.98143C43.7406 3.79796 44.0108 3.10269 43.8081 2.56192C43.5862 1.98253 42.9589 1.74111 42.3894 1.92458C42.3315 1.9439 42.2832 1.96321 42.2253 1.98252C41.154 2.33016 40.0924 2.68745 39.0598 3.13165L39.0115 3.15097Z" fill="#432A05"/>
</svg>
