<svg width="32" height="33" viewBox="0 0 32 33" fill="none" xmlns="http://www.w3.org/2000/svg">
<path d="M15.9993 15.9489C15.1153 15.9489 14.2674 15.5977 13.6423 14.9726C13.0172 14.3475 12.666 13.4996 12.666 12.6156C12.666 11.7315 13.0172 10.8837 13.6423 10.2585C14.2674 9.63342 15.1153 9.28223 15.9993 9.28223C16.8834 9.28223 17.7312 9.63342 18.3564 10.2585C18.9815 10.8837 19.3327 11.7315 19.3327 12.6156C19.3327 13.0533 19.2465 13.4868 19.0789 13.8912C18.9114 14.2956 18.6659 14.6631 18.3564 14.9726C18.0468 15.2821 17.6794 15.5276 17.275 15.6952C16.8705 15.8627 16.4371 15.9489 15.9993 15.9489ZM15.9993 3.28223C13.524 3.28223 11.15 4.26556 9.39969 6.0159C7.64935 7.76624 6.66602 10.1402 6.66602 12.6156C6.66602 19.6156 15.9993 29.9489 15.9993 29.9489C15.9993 29.9489 25.3327 19.6156 25.3327 12.6156C25.3327 10.1402 24.3493 7.76624 22.599 6.0159C20.8487 4.26556 18.4747 3.28223 15.9993 3.28223Z" fill="#422800"/>
</svg>
