<svg width="250" height="78" viewBox="0 0 250 78" fill="none" xmlns="http://www.w3.org/2000/svg">
<path d="M83.3338 33.8082C86.6986 33.5306 94.4848 29.6522 98.8691 26.9745C105.444 22.9587 106.543 29.0503 101.208 32.4558C97.6127 34.751 87.9657 38.8767 87.6004 44.1195C87.1437 50.6738 91.1888 61.0771 86.1916 61.253C83.1951 61.3584 81.8833 47.7776 78.5988 45.9661C75.8547 43.9292 72.5056 61.8721 67.3752 60.1944C64.4436 59.2358 70.8017 43.3284 70.591 40.3977C70.3245 36.6904 66.3084 35.6738 62.6747 33.5186C55.116 29.0354 56.0217 23.5664 64.1211 27.8248C66.2588 28.9487 75.7289 34.4358 83.3338 33.8082Z" fill="#FFCE48" stroke="#422800" stroke-width="1.17533"/>
<path d="M87.2157 21.217C87.2157 24.7894 84.3323 27.6813 80.7806 27.6813C77.2289 27.6813 74.3455 24.7894 74.3455 21.217C74.3455 17.6446 77.2289 14.7527 80.7806 14.7527C84.3323 14.7527 87.2157 17.6446 87.2157 21.217Z" fill="#FFCE48" stroke="#422800" stroke-width="1.17533"/>
<path d="M30.4546 33.7024C27.0899 33.4247 19.4294 30.3964 15.045 27.7187C8.47002 23.7029 6.98556 29.4329 12.7055 32.4558C16.4756 34.4483 25.8228 38.7709 26.1881 44.0137C26.6447 50.5679 22.5997 60.9713 27.5968 61.1471C30.5933 61.2525 31.9052 47.6717 35.1897 45.8603C37.9338 43.8233 41.2828 61.7663 46.4132 60.0886C49.3448 59.1299 42.9867 43.2225 43.1974 40.2918C43.464 36.5845 47.4801 35.568 51.1138 33.4128C58.6725 28.9296 57.7667 23.4606 49.6673 27.7189C47.5297 28.8429 38.0595 34.3299 30.4546 33.7024Z" fill="#FFCE48" stroke="#422800" stroke-width="1.17533"/>
<path d="M40.3973 21.217C40.3973 24.7894 37.5139 27.6813 33.9622 27.6813C30.4105 27.6813 27.5271 24.7894 27.5271 21.217C27.5271 17.6446 30.4105 14.7527 33.9622 14.7527C37.5139 14.7527 40.3973 17.6446 40.3973 21.217Z" fill="#FFCE48" stroke="#422800" stroke-width="1.17533"/>
<path d="M122.179 21.1846C121.329 21.1846 120.562 21.0264 119.876 20.71C119.19 20.3877 118.602 19.9365 118.109 19.3564C117.623 18.7764 117.248 18.0908 116.984 17.2998C116.721 16.5088 116.589 15.6416 116.589 14.6982V14.5049C116.589 13.5674 116.721 12.7031 116.984 11.9121C117.248 11.1211 117.623 10.4355 118.109 9.85547C118.602 9.26953 119.19 8.81836 119.876 8.50195C120.562 8.17969 121.326 8.01855 122.17 8.01855C123.043 8.01855 123.825 8.17969 124.517 8.50195C125.208 8.81836 125.797 9.26953 126.283 9.85547C126.77 10.4355 127.142 11.1211 127.399 11.9121C127.657 12.7031 127.786 13.5674 127.786 14.5049V14.6982C127.786 15.6416 127.657 16.5088 127.399 17.2998C127.142 18.0908 126.77 18.7764 126.283 19.3564C125.797 19.9365 125.208 20.3877 124.517 20.71C123.825 21.0264 123.046 21.1846 122.179 21.1846ZM122.179 19.4268C122.952 19.4268 123.588 19.2305 124.086 18.8379C124.59 18.4395 124.962 17.8857 125.202 17.1768C125.448 16.4678 125.571 15.6416 125.571 14.6982V14.4873C125.571 13.5557 125.448 12.7383 125.202 12.0352C124.956 11.332 124.581 10.7812 124.077 10.3828C123.579 9.98438 122.943 9.78516 122.17 9.78516C121.432 9.78516 120.813 9.98438 120.315 10.3828C119.817 10.7812 119.442 11.332 119.19 12.0352C118.938 12.7383 118.812 13.5557 118.812 14.4873V14.6982C118.812 15.6357 118.938 16.4619 119.19 17.1768C119.442 17.8857 119.817 18.4395 120.315 18.8379C120.819 19.2305 121.44 19.4268 122.179 19.4268ZM132.365 21.1846C132.219 21.1846 132.049 21.1758 131.855 21.1582C131.668 21.1465 131.536 21.1348 131.46 21.123L131.469 19.4443C131.533 19.4502 131.65 19.459 131.82 19.4707C131.996 19.4766 132.128 19.4795 132.216 19.4795C132.661 19.4795 132.986 19.377 133.191 19.1719C133.402 18.9609 133.602 18.6357 133.789 18.1963L134.044 17.6074L130.353 9.74121L129.131 9.56543V8.20312H133.728V9.56543L132.726 9.72363L134.562 13.96L135.011 15.1025H135.063L137.076 9.75L136.101 9.56543V8.20312H140.592V9.56543L139.449 9.73242L135.67 18.7148C135.43 19.248 135.172 19.6992 134.896 20.0684C134.621 20.4375 134.284 20.7158 133.886 20.9033C133.487 21.0908 132.98 21.1846 132.365 21.1846ZM141.506 21V19.6465L142.903 19.3828V9.8291L141.506 9.56543V8.20312H142.903H147.509C148.464 8.20312 149.281 8.37012 149.961 8.7041C150.646 9.03809 151.171 9.50391 151.534 10.1016C151.897 10.6934 152.079 11.3877 152.079 12.1846C152.079 12.9814 151.897 13.6787 151.534 14.2764C151.171 14.8682 150.646 15.3281 149.961 15.6562C149.281 15.9844 148.464 16.1484 147.509 16.1484H145.118V19.3828L146.516 19.6465V21H141.506ZM145.118 14.4346H147.509C148.294 14.4346 148.883 14.2236 149.275 13.8018C149.668 13.3799 149.864 12.8467 149.864 12.2021C149.864 11.5459 149.668 11.001 149.275 10.5674C148.883 10.1338 148.294 9.91699 147.509 9.91699H145.118V14.4346ZM164.138 24.085V21H153.107V19.6465L154.505 19.3828V9.8291L153.107 9.56543V8.20312H158.108V9.56543L156.72 9.8291V19.2949H162.354V9.8291L160.956 9.56543V8.20312H165.966V9.56543L164.568 9.8291V19.2949H166.309L166.265 24.085H164.138ZM117.521 48.0059L116.378 47.3291C116.63 46.9189 116.82 46.4941 116.949 46.0547C117.078 45.6152 117.143 45.1348 117.143 44.6133V42.9434H119.208L119.199 44.5342C119.199 45.1729 119.041 45.8057 118.725 46.4326C118.408 47.0596 118.007 47.584 117.521 48.0059ZM120.421 48.0059L119.278 47.3291C119.53 46.9189 119.721 46.4941 119.85 46.0547C119.979 45.6152 120.043 45.1348 120.043 44.6133V42.9434H122.108L122.1 44.5342C122.1 45.1729 121.941 45.8057 121.625 46.4326C121.309 47.0596 120.907 47.584 120.421 48.0059ZM129.509 45.1846C128.249 45.1846 127.171 44.918 126.274 44.3848C125.384 43.8457 124.701 43.0957 124.227 42.1348C123.758 41.168 123.523 40.0459 123.523 38.7686V38.4434C123.523 37.1953 123.758 36.0908 124.227 35.1299C124.695 34.1631 125.366 33.4043 126.239 32.8535C127.112 32.2969 128.155 32.0186 129.368 32.0186C130.218 32.0186 131.006 32.1445 131.732 32.3965C132.459 32.6484 133.092 33.0029 133.631 33.46V36.4131H131.943L131.715 34.4355C131.521 34.2949 131.308 34.1748 131.073 34.0752C130.839 33.9756 130.581 33.8994 130.3 33.8467C130.024 33.7939 129.723 33.7676 129.395 33.7676C128.627 33.7676 127.968 33.9609 127.417 34.3477C126.872 34.7344 126.456 35.2764 126.169 35.9736C125.882 36.6709 125.738 37.4883 125.738 38.4258V38.7686C125.738 39.7412 125.891 40.5791 126.195 41.2822C126.5 41.9795 126.937 42.5156 127.505 42.8906C128.079 43.2656 128.765 43.4531 129.562 43.4531C129.948 43.4531 130.329 43.4092 130.704 43.3213C131.085 43.2275 131.419 43.1074 131.706 42.9609L131.943 41.168H133.613V44.1035C133.121 44.4258 132.518 44.6865 131.803 44.8857C131.094 45.085 130.329 45.1846 129.509 45.1846ZM135.45 45V43.6465L136.856 43.3828V37.1162L135.45 36.8525V35.4902H136.856H140.724C141.989 35.4902 142.971 35.71 143.668 36.1494C144.365 36.5889 144.714 37.2393 144.714 38.1006C144.714 38.5576 144.576 38.9619 144.301 39.3135C144.025 39.6592 143.618 39.9258 143.079 40.1133C143.765 40.2598 144.28 40.5322 144.626 40.9307C144.972 41.3232 145.145 41.7861 145.145 42.3193C145.145 43.1982 144.813 43.8662 144.151 44.3232C143.495 44.7744 142.558 45 141.339 45H135.45ZM139.062 43.3125H141.33C141.869 43.3125 142.271 43.2129 142.534 43.0137C142.798 42.8086 142.93 42.5127 142.93 42.126C142.93 41.751 142.801 41.4609 142.543 41.2559C142.285 41.0508 141.884 40.9482 141.339 40.9482H139.062V43.3125ZM139.062 39.4277H140.768C141.354 39.4219 141.787 39.3281 142.068 39.1465C142.355 38.959 142.499 38.6836 142.499 38.3203C142.499 37.5645 141.913 37.1865 140.741 37.1865H139.062V39.4277ZM147.061 45V42.9521H149.267V45H147.061ZM150.893 45V43.6465L152.29 43.3828V33.8291L150.893 33.5654V32.2031H155.858V33.5654L154.505 33.8291V37.6611H155.753L158.363 33.8994C158.861 33.2139 159.31 32.7422 159.708 32.4844C160.106 32.2207 160.558 32.0889 161.062 32.0889C161.366 32.0889 161.633 32.127 161.861 32.2031C162.096 32.2793 162.318 32.3848 162.529 32.5195L162.178 34.1455C162.037 34.1162 161.911 34.0928 161.8 34.0752C161.694 34.0518 161.586 34.04 161.475 34.04C161.217 34.04 160.977 34.1162 160.754 34.2686C160.531 34.415 160.273 34.6846 159.98 35.0771L157.669 38.2764L161.51 43.4268L162.793 43.6465V45H158.091V43.6465L158.926 43.5322L158.899 43.4971L156.069 39.6211H154.505V43.3828L155.858 43.6465V45H150.893ZM163.83 45L163.821 43.207L164.129 43.1982C164.533 43.1982 164.844 43.084 165.061 42.8555C165.277 42.627 165.43 42.2461 165.518 41.7129C165.605 41.1797 165.649 40.4561 165.649 39.542V37.1162L164.252 36.8525V35.4902H172.751H174.148V36.8525L172.751 37.1162V43.3828L174.148 43.6465V45H169.147V43.6465L170.545 43.3828V37.2129H167.864V39.542C167.864 41.417 167.592 42.7969 167.047 43.6816C166.502 44.5605 165.576 45 164.27 45H163.83ZM175.625 45V43.6465L177.022 43.3828V37.1162L175.625 36.8525V35.4902H179.237H180.547V36.8525L179.237 37.1162V41.6689L179.29 41.6777L182.841 35.4902H185.056H186.444V36.8525L185.056 37.1162V43.3828L186.444 43.6465V45H181.522V43.6465L182.841 43.3828V38.8125L182.788 38.8037L179.237 45H175.625ZM188.026 45V43.6465L189.433 43.3828V37.1162L188.026 36.8525V35.4902H189.433H192.201L194.908 42.3193H194.961L197.686 35.4902H200.463H201.852V36.8525L200.463 37.1162V43.3828L201.852 43.6465V45H197.079V43.6465L198.248 43.3828V38.9443L198.195 38.9268L195.69 45H194.188L191.691 38.9355L191.639 38.9443V43.3828L192.808 43.6465V45H188.026ZM207.626 45.1846C206.729 45.1846 205.947 44.9854 205.279 44.5869C204.617 44.1826 204.102 43.626 203.732 42.917C203.369 42.208 203.188 41.3965 203.188 40.4824V40.1133C203.188 39.1875 203.366 38.3643 203.724 37.6436C204.087 36.9229 204.585 36.3545 205.218 35.9385C205.851 35.5225 206.571 35.3145 207.38 35.3145C208.241 35.3145 208.962 35.4873 209.542 35.833C210.128 36.1787 210.57 36.6709 210.869 37.3096C211.168 37.9424 211.317 38.7041 211.317 39.5947V40.8604H205.481L205.464 40.9043C205.487 41.4023 205.59 41.8447 205.771 42.2314C205.959 42.6182 206.223 42.9229 206.562 43.1455C206.908 43.3682 207.327 43.4795 207.819 43.4795C208.335 43.4795 208.804 43.4092 209.226 43.2686C209.647 43.1279 210.037 42.9287 210.395 42.6709L211.089 44.0596C210.714 44.376 210.236 44.6426 209.656 44.8594C209.076 45.0762 208.399 45.1846 207.626 45.1846ZM205.517 39.3047H209.199V39.0762C209.199 38.6602 209.135 38.2969 209.006 37.9863C208.883 37.6699 208.687 37.4238 208.417 37.248C208.153 37.0723 207.816 36.9844 207.406 36.9844C207.049 36.9844 206.735 37.084 206.466 37.2832C206.196 37.4824 205.979 37.7549 205.815 38.1006C205.657 38.4404 205.549 38.8271 205.49 39.2607L205.517 39.3047ZM212.768 45V43.6465L214.165 43.3828V37.1162L212.768 36.8525V35.4902H217.619V36.8525L216.38 37.1162V39.4541H219.966V37.1162L218.727 36.8525V35.4902H219.966H222.181H223.578V36.8525L222.181 37.1162V43.3828L223.578 43.6465V45H218.727V43.6465L219.966 43.3828V41.1592H216.38V43.3828L217.619 43.6465V45H212.768ZM227.146 45V43.6465L228.544 43.3828V37.1865H226.777L226.663 38.5576H224.905V35.4902H234.441V38.5576H232.675L232.561 37.1865H230.759V43.3828L232.147 43.6465V45H227.146ZM122.179 69.1846C121.329 69.1846 120.562 69.0264 119.876 68.71C119.19 68.3877 118.602 67.9365 118.109 67.3564C117.623 66.7764 117.248 66.0908 116.984 65.2998C116.721 64.5088 116.589 63.6416 116.589 62.6982V62.5049C116.589 61.5674 116.721 60.7031 116.984 59.9121C117.248 59.1211 117.623 58.4355 118.109 57.8555C118.602 57.2695 119.19 56.8184 119.876 56.502C120.562 56.1797 121.326 56.0186 122.17 56.0186C123.043 56.0186 123.825 56.1797 124.517 56.502C125.208 56.8184 125.797 57.2695 126.283 57.8555C126.77 58.4355 127.142 59.1211 127.399 59.9121C127.657 60.7031 127.786 61.5674 127.786 62.5049V62.6982C127.786 63.6416 127.657 64.5088 127.399 65.2998C127.142 66.0908 126.77 66.7764 126.283 67.3564C125.797 67.9365 125.208 68.3877 124.517 68.71C123.825 69.0264 123.046 69.1846 122.179 69.1846ZM122.179 67.4268C122.952 67.4268 123.588 67.2305 124.086 66.8379C124.59 66.4395 124.962 65.8857 125.202 65.1768C125.448 64.4678 125.571 63.6416 125.571 62.6982V62.4873C125.571 61.5557 125.448 60.7383 125.202 60.0352C124.956 59.332 124.581 58.7812 124.077 58.3828C123.579 57.9844 122.943 57.7852 122.17 57.7852C121.432 57.7852 120.813 57.9844 120.315 58.3828C119.817 58.7812 119.442 59.332 119.19 60.0352C118.938 60.7383 118.812 61.5557 118.812 62.4873V62.6982C118.812 63.6357 118.938 64.4619 119.19 65.1768C119.442 65.8857 119.817 66.4395 120.315 66.8379C120.819 67.2305 121.44 67.4268 122.179 67.4268ZM129.034 69V67.6465L130.186 67.4707L132.954 64.2188L130.3 61.0283L129.236 60.8525V59.4902H133.534V60.8174L132.708 60.9229L134.325 62.9971L135.925 60.9229L135.02 60.8174V59.4902H139.194V60.8525L138.175 61.0283L135.679 64.1484L138.5 67.4707L139.59 67.6465V69H135.063V67.6816L136.021 67.5762L134.299 65.458L132.62 67.585L133.517 67.6816V69H129.034ZM140.337 72.6562V71.2939L141.62 71.0303V61.1162L140.223 60.8525V59.4902H143.606L143.747 60.6152C144.04 60.1992 144.397 59.8799 144.819 59.6572C145.241 59.4287 145.739 59.3145 146.313 59.3145C147.087 59.3145 147.749 59.5254 148.3 59.9473C148.851 60.3691 149.27 60.958 149.557 61.7139C149.85 62.4697 149.996 63.3545 149.996 64.3682V64.5527C149.996 65.4785 149.85 66.29 149.557 66.9873C149.264 67.6787 148.842 68.2178 148.291 68.6045C147.746 68.9912 147.087 69.1846 146.313 69.1846C145.769 69.1846 145.291 69.0908 144.881 68.9033C144.471 68.71 144.119 68.4287 143.826 68.0596V71.0303L145.18 71.2939V72.6562H140.337ZM145.646 67.4795C146.372 67.4795 146.908 67.2129 147.254 66.6797C147.605 66.1406 147.781 65.4316 147.781 64.5527V64.3682C147.781 63.7119 147.702 63.1377 147.544 62.6455C147.392 62.1475 147.154 61.7607 146.832 61.4854C146.516 61.2041 146.114 61.0635 145.628 61.0635C145.218 61.0635 144.86 61.1572 144.556 61.3447C144.257 61.5264 144.014 61.7842 143.826 62.1182V66.4775C144.014 66.7998 144.257 67.0488 144.556 67.2246C144.854 67.3945 145.218 67.4795 145.646 67.4795ZM151.473 69V67.6465L152.87 67.3828V61.1162L151.473 60.8525V59.4902H155.085H156.395V60.8525L155.085 61.1162V65.6689L155.138 65.6777L158.688 59.4902H160.903H162.292V60.8525L160.903 61.1162V67.3828L162.292 67.6465V69H157.37V67.6465L158.688 67.3828V62.8125L158.636 62.8037L155.085 69H151.473ZM163.733 71.8301L163.549 67.2773H164.34C164.609 66.9844 164.838 66.6973 165.025 66.416C165.213 66.1348 165.365 65.8301 165.482 65.502C165.605 65.1738 165.699 64.7959 165.764 64.3682C165.834 63.9404 165.884 63.4365 165.913 62.8564L165.966 61.1074L164.604 60.8525V59.4902H172.681H174.078V60.8525L172.681 61.1162V67.2949H174.008L173.832 71.8301H171.793V69H165.772V71.8301H163.733ZM166.88 67.2861H170.475V61.3271H168.172L168.119 62.8564C168.078 63.8467 167.949 64.7051 167.732 65.4316C167.516 66.1523 167.231 66.7705 166.88 67.2861ZM179.738 69.1846C178.848 69.1846 178.074 68.9824 177.418 68.5781C176.768 68.168 176.264 67.6055 175.906 66.8906C175.555 66.1699 175.379 65.3408 175.379 64.4033V64.0957C175.379 63.1758 175.555 62.3555 175.906 61.6348C176.258 60.9141 176.759 60.3486 177.409 59.9385C178.065 59.5225 178.839 59.3145 179.729 59.3145C180.544 59.3145 181.253 59.4463 181.856 59.71C182.46 59.9678 182.955 60.29 183.342 60.6768L183.351 63.2168H181.663L181.338 61.5381C181.174 61.3682 180.966 61.2334 180.714 61.1338C180.462 61.0283 180.187 60.9756 179.888 60.9756C179.401 60.9756 178.985 61.1074 178.64 61.3711C178.3 61.6348 178.039 62.001 177.857 62.4697C177.682 62.9326 177.594 63.4746 177.594 64.0957V64.4033C177.594 65.0713 177.685 65.6338 177.866 66.0908C178.048 66.5479 178.3 66.8936 178.622 67.1279C178.95 67.3623 179.325 67.4795 179.747 67.4795C180.257 67.4795 180.67 67.3418 180.986 67.0664C181.309 66.791 181.52 66.4102 181.619 65.9238H183.535L183.562 65.9766C183.491 66.5977 183.307 67.1514 183.008 67.6377C182.715 68.1182 182.299 68.4961 181.76 68.7715C181.227 69.0469 180.553 69.1846 179.738 69.1846ZM185.021 69V67.6465L186.427 67.3828V61.1162L185.021 60.8525V59.4902H189.916V60.8525L188.633 61.1162V63.2783H189.529L191.182 60.9316C191.539 60.4043 191.902 60.0059 192.271 59.7363C192.641 59.4668 193.074 59.332 193.572 59.332C193.877 59.332 194.135 59.3701 194.346 59.4463C194.562 59.5225 194.782 59.6309 195.005 59.7715L194.653 61.3008C194.454 61.2539 194.328 61.2275 194.275 61.2217C194.229 61.21 194.152 61.2041 194.047 61.2041C193.842 61.2041 193.64 61.2773 193.44 61.4238C193.247 61.5645 193.077 61.7402 192.931 61.9512L191.445 63.9902L193.977 67.4268L195.242 67.6465V69H192.236L189.67 65.2383H188.633V67.3828L189.916 67.6465V69H185.021ZM196.438 69V67.6465L197.835 67.3828V61.1162L196.438 60.8525V59.4902H200.05H201.359V60.8525L200.05 61.1162V65.6689L200.103 65.6777L203.653 59.4902H205.868H207.257V60.8525L205.868 61.1162V67.3828L207.257 67.6465V69H202.335V67.6465L203.653 67.3828V62.8125L203.601 62.8037L200.05 69H196.438ZM208.892 60.0879V58.4531C208.892 58.0664 208.959 57.665 209.094 57.249C209.229 56.8271 209.416 56.4258 209.656 56.0449C209.896 55.6582 210.175 55.3301 210.491 55.0605L211.634 55.7197C211.382 56.1416 211.191 56.5723 211.062 57.0117C210.934 57.4453 210.869 57.9229 210.869 58.4443V60.0879H208.892ZM211.81 60.0879V58.4531C211.81 58.0664 211.877 57.665 212.012 57.249C212.146 56.8271 212.334 56.4258 212.574 56.0449C212.814 55.6582 213.093 55.3301 213.409 55.0605L214.552 55.7197C214.3 56.1416 214.109 56.5723 213.98 57.0117C213.852 57.4453 213.787 57.9229 213.787 58.4443V60.0879H211.81Z" fill="#422800"/>
</svg>
