<svg width="32" height="33" viewBox="0 0 32 33" fill="none" xmlns="http://www.w3.org/2000/svg">
<mask id="mask0_197_964" style="mask-type:alpha" maskUnits="userSpaceOnUse" x="0" y="0" width="32" height="33">
<rect y="0.615234" width="32" height="32" fill="#D9D9D9"/>
</mask>
<g mask="url(#mask0_197_964)">
<path d="M5.33317 27.2816C4.59984 27.2816 3.97206 27.0205 3.44984 26.4982C2.92762 25.976 2.6665 25.3482 2.6665 24.6149V8.61491C2.6665 7.88158 2.92762 7.2538 3.44984 6.73158C3.97206 6.20935 4.59984 5.94824 5.33317 5.94824H26.6665C27.3998 5.94824 28.0276 6.20935 28.5498 6.73158C29.0721 7.2538 29.3332 7.88158 29.3332 8.61491V24.6149C29.3332 25.3482 29.0721 25.976 28.5498 26.4982C28.0276 27.0205 27.3998 27.2816 26.6665 27.2816H5.33317ZM15.9998 17.9482L26.6665 11.2816V8.61491L15.9998 15.2816L5.33317 8.61491V11.2816L15.9998 17.9482Z" fill="#422800"/>
</g>
</svg>
