<svg width="65" height="91" viewBox="0 0 65 91" fill="none" xmlns="http://www.w3.org/2000/svg">
<path d="M2.19169 46.3962C1.8796 39.2799 2.70661 22.5728 2.38152 15.16C1.71502 14.0752 -0.403451 5.84971 3.36019 3.60507C7.12384 1.36044 27.3489 0.201161 31.4639 0.887192L34.1449 38.3105L57.4247 84.7888C52.7039 87.2239 44.7943 86.3825 37.137 87.9066C27.5653 89.8118 7.81614 89.9693 4.04471 88.6493C0.273279 87.3293 2.5818 55.2916 2.19169 46.3962Z" fill="#FBB800"/>
<path d="M16.3641 15.2898L11.1602 15.1055L11.6794 29.5651L18.3531 29.3254L16.3641 15.2898Z" fill="#FFCE48"/>
<path d="M29.7113 14.8103L24.5073 14.626L25.0266 29.0856L31.7002 28.8459L29.7113 14.8103Z" fill="#FFCE48"/>
<path d="M44.7718 41.3699L40.3094 41.1589L40.0738 55.2744L46.7475 55.0347L44.7718 41.3699Z" fill="#FFCE48"/>
<path d="M31.4378 42.2205L26.2339 42.0361L26.7531 56.4957L33.4268 56.2561L31.4378 42.2205Z" fill="#FFCE48"/>
<path d="M64.0191 85.8227C64.008 85.5572 63.9075 85.3092 63.7397 85.0978C63.7287 85.0883 63.7228 85.0737 63.7168 85.0591C63.7162 85.0443 63.7158 85.0345 63.7154 85.0247C63.5881 79.9679 64.0734 75.1137 62.9075 70.0594C61.6176 64.4477 62.57 58.4764 61.3035 52.7901C60.0114 47.0013 59.996 41.0746 58.9938 35.2473C58.0196 29.5815 57.2655 23.7318 56.6389 18.0159C56.3375 15.2537 56.1532 12.5025 55.8148 9.74137C55.549 7.57365 55.5438 5.29943 54.0178 3.53491C52.7647 2.08687 50.759 2.0257 48.9704 2.08583C45.7478 2.19515 42.1037 2.11071 38.8965 1.70265C36.3073 1.37396 33.7429 2.14232 31.195 2.29481C28.6523 2.44221 26.1573 2.84413 23.6119 2.92762C20.7437 3.02108 17.8703 3.11961 15.0021 3.21307C12.0545 3.30897 9.19536 4.12581 6.25701 4.44296C6.16195 4.45082 6.0677 4.47834 5.97918 4.51553C5.90935 4.49307 5.83465 4.48061 5.76565 4.47782C5.48453 4.47173 5.19062 4.53987 4.95844 4.6898C4.70042 4.8553 4.50518 5.12716 4.37995 5.4264C4.17527 5.6001 4.04287 5.85525 4.0626 6.19925C4.79715 20.6794 4.22836 35.1654 4.81556 49.6699C5.10771 56.8877 5.40007 64.1104 5.69222 71.3282C5.84482 74.9664 5.98662 78.6001 6.13394 82.2385C6.21808 84.2444 6.01458 87.3521 7.40758 88.978C7.38813 89.146 7.45926 89.3259 7.62133 89.3997C9.34039 90.2081 11.2729 90.0402 13.16 90.0558C15.6194 90.0685 18.0649 90.0028 20.5137 89.7648C25.0206 89.3205 29.4586 88.7503 34.009 88.5852C39.5066 88.386 44.9985 88.054 50.4964 87.8646C52.7506 87.7852 55.1044 87.3039 57.3529 87.5939C59.1964 87.8324 61.1201 88.0881 62.9284 87.6138C63.1696 87.5522 63.3411 87.3451 63.4004 87.1168C63.4472 87.0957 63.4944 87.0843 63.5408 87.0534C63.9232 86.82 64.2121 86.2548 64.0136 85.8179L64.0191 85.8227ZM6.83587 6.62071C6.87917 6.51599 6.91718 6.41144 6.96049 6.30672C8.90608 6.32543 10.6848 6.02931 12.6241 5.64454C15.3887 5.10138 18.5101 5.35948 21.3312 5.27732C26.137 5.13883 30.9005 4.24352 35.6799 4.10585C38.3422 4.0286 40.9715 4.30189 43.6352 4.25905C44.779 4.23852 45.8683 4.43627 47.0068 4.54389C49.0445 4.73699 51.3428 3.94238 52.5382 5.90911C50.9954 5.89273 49.4583 5.75803 47.9292 5.81507C46.014 5.88895 44.0808 6.16523 42.1565 6.02279C37.8721 5.70704 33.5767 5.76086 29.2901 5.8981C25.1779 6.02502 21.0788 6.21062 16.972 6.46537C14.9425 6.59202 12.9552 6.71736 10.9367 6.9815C9.40302 7.18145 7.82446 7.19571 6.29202 7.42516C6.28542 7.26783 6.27903 7.11542 6.27243 6.95809C6.49677 7.00039 6.73567 6.88471 6.84096 6.61563L6.83587 6.62071ZM6.59178 26.8269C6.53573 20.6898 6.56238 14.6289 6.3323 8.51188C9.67933 8.84178 13.1895 8.13284 16.4951 7.98158C20.7792 7.78535 25.0558 7.5352 29.3481 7.40763C33.4444 7.2812 37.5599 7.23294 41.6576 7.51998C43.5975 7.65702 45.5705 7.5715 47.503 7.40355C49.351 7.24313 51.2633 7.47948 53.1348 7.50048C53.675 9.64004 53.6863 12.4359 53.813 14.4454C53.9865 17.192 54.2823 19.8215 54.651 22.5473C55.2077 26.7244 55.7014 30.9134 56.1948 35.0974C55.1658 35.075 54.1092 35.1519 53.1619 35.1811C50.7067 35.2668 48.2377 35.279 45.7929 35.4873C43.2478 35.7037 40.7911 35.755 38.2484 35.5233C37.2429 35.4313 36.2462 35.5457 35.2404 35.4438C34.3146 35.3543 33.3467 35.3989 32.4375 35.5796C31.3761 35.7945 30.331 35.7677 29.2534 35.7222C28.0485 35.6757 26.8682 35.9632 25.6689 36.0494C23.6347 36.191 21.6793 36.1923 19.6757 36.5593C17.0464 37.0441 14.3579 36.9991 11.6755 37.1016C10.6227 37.144 9.58396 37.1416 8.52934 37.1397C7.88794 37.1348 7.44427 37.2962 6.95339 37.4689C6.77803 33.92 6.62913 30.3702 6.59137 26.8171L6.59178 26.8269ZM6.97814 38.0589C7.33678 38.0183 7.69354 37.9334 8.07459 37.9217C9.07464 37.8859 10.0795 37.9632 11.0854 37.942C13.489 37.8875 16.1805 38.1293 18.5362 37.6923C20.7761 37.2736 22.8795 37.0118 25.1703 36.9214C26.2283 36.8789 27.2497 36.7194 28.2983 36.5787C29.4418 36.4252 30.6075 36.6748 31.7614 36.5161C33.8005 36.2366 35.7133 36.3597 37.7623 36.3161C38.8053 36.2938 39.8424 36.6359 40.8883 36.6824C42.3273 36.7512 43.791 36.6519 45.2317 36.6369C47.7214 36.6142 50.2054 36.5819 52.6932 36.5149C53.6723 36.4847 54.6514 36.4545 55.6325 36.4734C55.8817 36.4756 56.1211 36.4977 56.3603 36.515C56.4175 36.9956 56.475 37.4812 56.5322 37.9619C52.801 37.9491 49.0477 37.6613 45.3254 37.4808C40.9181 37.2673 36.4176 37.357 32.0318 37.7828C27.6513 38.2085 23.3706 38.2323 18.9803 38.2989C16.8302 38.3308 14.7563 38.6655 12.6374 38.9377C11.5727 39.074 10.5107 39.2741 9.44451 39.3759C8.64764 39.4547 7.84621 39.4253 7.04644 39.4352C7.02726 38.978 7.00302 38.5258 6.97855 38.0687L6.97814 38.0589ZM14.1137 87.9046C13.9761 87.9088 13.8381 87.9032 13.7003 87.9025C13.8591 85.2442 13.1377 82.5736 12.9418 79.9262C12.7946 77.9321 12.622 75.7123 12.2356 73.7009C14.0346 74.0146 15.9017 73.9323 17.7524 73.8358C16.879 76.6393 18.3673 84.7063 18.9393 87.603C17.3459 87.7703 15.7552 87.8736 14.1137 87.9046ZM21.8585 87.2077C21.5481 87.2616 21.2423 87.3005 20.9368 87.3444C20.6391 84.7937 20.1599 82.2141 19.7675 79.6811C19.5926 78.5444 19.4286 77.4123 19.2908 76.2744C19.2505 75.9458 18.8693 74.5644 18.7836 73.7843C19.175 73.7673 19.5609 73.7455 19.9475 73.7385C20.9213 73.7085 21.659 74.4931 22.6425 74.443C23.9858 74.3769 24.4121 73.8026 24.5873 75.2002C24.8891 77.5932 25.8735 79.9652 25.9752 82.3891C26.0304 83.7067 26.2147 85.3207 26.763 86.6428C25.1147 86.7626 23.4737 86.9314 21.8585 87.2077ZM28.3853 86.5336C27.6459 84.8236 28.0817 82.329 27.6157 80.5662C27.0682 78.5056 27.3356 75.4058 26.1306 73.5871C25.78 73.0613 25.2234 72.9308 24.6473 72.8403C24.1512 72.762 23.6212 72.8867 23.1368 72.9607C21.7047 73.1822 21.8298 72.6269 20.7701 72.379C19.8605 72.1708 18.5095 72.4291 17.5886 72.4575C15.7204 72.5152 13.8796 72.4686 12.0703 72.9183C12.0696 72.9036 12.069 72.8888 12.0633 72.8792C12.0307 72.7325 11.8245 72.7438 11.76 72.8491C10.5125 74.8174 11.0631 76.8286 11.3314 79.0554C11.6745 81.9296 11.6029 85.0234 12.1313 87.8919C11.3891 87.8853 10.6478 87.8983 9.92564 87.9895C9.87828 87.7448 9.76193 87.4974 9.54584 87.2727C9.30775 87.0289 9.46568 85.8672 9.39158 85.4904C9.01684 83.6313 8.95093 81.8069 8.86665 79.924C8.71487 76.3055 8.55249 72.6872 8.39521 69.0639C8.39026 68.9459 8.38531 68.8279 8.38057 68.7148C10.1371 69.532 13.2653 68.6871 15.1127 68.6399C19.3108 68.5399 23.5151 68.5874 27.7094 68.6499C27.9797 68.6514 28.2557 68.6626 28.5154 68.6644C28.0395 71.5934 29.1164 74.4007 29.3562 77.3372C29.6064 80.3965 30.0507 83.4103 30.4642 86.4448C29.7709 86.4662 29.078 86.4975 28.3906 86.5335L28.3853 86.5336ZM9.11304 64.3207C13.4671 64.654 17.857 64.8335 22.2183 64.5808C24.1479 64.472 26.0164 64.1682 27.9546 64.3889C28.8171 64.4854 29.0224 66.9799 28.6636 67.0156C24.1563 67.4501 19.57 67.1387 15.0456 67.1652C13.5038 67.1734 12.009 67.2884 10.4826 67.4094C8.04206 67.593 7.89495 65.4758 9.1183 64.3205L9.11304 64.3207ZM29.0645 63.055C26.9187 62.181 23.6108 63.0363 21.3786 63.1347C17.5598 63.3068 13.7552 63.0599 9.95299 63.3742C9.89938 63.2331 9.77737 63.1039 9.63241 63.0592C9.04159 62.8706 8.53781 62.8616 8.12404 62.9777C7.90098 57.786 7.67281 52.5994 7.44974 47.4077C7.35117 45.0576 7.22064 42.7036 7.1009 40.3541C10.9156 40.4628 14.6734 39.5936 18.4849 39.5006C22.8576 39.3952 27.1452 39.5336 31.5142 39.0886C35.8778 38.6388 40.4237 38.4936 44.8115 38.7471C47.1647 38.8812 49.4795 38.859 51.8185 39.1609C53.433 39.372 55.0799 39.4688 56.7114 39.453C57.3043 44.3674 57.9236 49.2761 58.6851 54.1657C59.0775 56.6987 59.2383 59.3964 59.3826 61.9518C59.4478 63.1264 59.3868 64.3246 59.3577 65.5266C49.77 65.4927 40.1162 64.7668 30.5493 65.6085C30.3407 64.5516 29.9057 63.4032 29.0647 63.06L29.0645 63.055ZM57.7739 85.8825C55.7056 85.5919 53.6684 85.9157 51.606 86.0187C46.043 86.2987 40.4686 86.1803 34.9051 86.3225C34.0689 86.3483 33.227 86.3645 32.3853 86.3855C32.0722 83.343 31.4267 80.3354 31.2085 77.28C31.0111 74.4702 30.5496 71.2994 29.7298 68.558C30.3428 68.3914 30.7444 67.9852 30.7146 67.0212C30.7078 66.8589 30.6999 66.6721 30.6756 66.471C30.9188 66.3306 31.297 66.378 31.5511 66.3702C31.8315 66.3615 32.1055 66.3235 32.3664 66.2268C41.3448 66.5159 50.3751 66.5276 59.3508 66.6247C59.3607 67.7468 59.4444 68.8568 59.7493 69.9353C61.1829 75.0552 60.4617 79.9708 60.7623 85.1158C60.7961 85.6711 61.0876 86.051 61.4727 86.2606C60.2112 86.2553 58.147 85.935 57.7686 85.8827L57.7739 85.8825Z" fill="#432A05"/>
<path d="M21.1206 79.8819C20.1506 79.9118 20.2111 81.3535 21.1811 81.3236C22.1511 81.2937 22.0906 79.8519 21.1206 79.8819Z" fill="#432A05"/>
<path d="M17.3568 80.4412C17.3568 80.4412 17.3454 80.4218 17.3452 80.4169C17.1786 80.1165 16.7244 80.0467 16.4449 80.2179C16.4449 80.2179 16.4449 80.2179 16.4396 80.2181C16.0309 80.4722 16.0557 81.0628 16.4847 81.2911C16.4847 81.2911 16.4847 81.2911 16.49 81.2909C16.7833 81.4494 17.2303 81.3469 17.3712 81.037C17.3708 81.0272 17.381 81.017 17.3808 81.0121C17.5877 80.8825 17.5735 80.5429 17.3564 80.4313L17.3568 80.4412Z" fill="#432A05"/>
<path d="M45.2671 74.1795C45.1706 73.0191 44.7531 71.2968 43.4139 70.8945C42.79 70.7067 42.2109 70.6999 41.5651 70.7494C40.3951 70.8347 39.3882 70.6292 38.2416 70.3885C36.795 70.0831 34.7831 69.9727 33.5127 70.8301C33.4352 70.8818 33.374 70.9428 33.3288 71.0034C33.1615 71.0677 33.0297 71.2147 33.0131 71.4519C32.9235 72.6081 32.9503 73.7509 32.9723 74.9087C32.9877 75.9089 33.354 76.7898 33.4123 77.7985C33.4772 78.9648 33.4438 79.9419 34.8545 80.1498C36.9171 80.4559 38.9476 80.1221 41.0092 80.024C42.1698 79.9685 44.3154 80.3509 45.0231 79.1214C45.7804 77.8065 45.3915 75.6249 45.2724 74.1793L45.2671 74.1795ZM43.645 76.778C43.5835 77.7165 43.6766 78.2904 42.5647 78.369C40.1927 78.5359 37.5841 78.8874 35.2206 78.6251C34.8632 78.5869 34.7041 76.3144 34.586 75.9039C34.2367 74.6675 34.2407 73.371 34.1023 72.0985C34.1653 72.0818 34.2332 72.055 34.3007 72.0185C36.26 70.8736 39.0592 72.5322 41.1772 72.2599C43.0892 72.0136 43.6952 73.0399 43.7396 74.8575C43.7557 75.4929 43.6873 76.1408 43.645 76.778Z" fill="#432A05"/>
<path d="M58.088 71.7706C57.3907 70.4704 56.5177 70.4283 55.1609 70.7562C52.8206 71.3166 50.3189 70.1855 48.0062 70.6465C47.6986 70.1529 46.8396 70.1893 46.7065 70.8148C46.542 71.5793 46.6973 72.2403 46.946 72.9773C47.0128 73.1774 47.0895 73.3575 47.1706 73.5177C46.7967 75.2405 46.9223 77.0959 47.8036 78.6024C47.9411 78.8398 48.2499 78.9831 48.5256 78.9697C51.3569 78.8429 54.6077 78.2051 57.4107 78.666C57.6835 78.7119 58.0161 78.6622 58.198 78.4396C59.6529 76.6539 59.0969 73.6578 58.0827 71.7707L58.088 71.7706ZM57.267 75.6228C57.2778 76.0071 57.246 76.3878 57.1821 76.7646C57.0699 77.5078 56.7571 77.1426 56.0133 77.1409C53.7603 77.1266 51.4796 77.7147 49.2279 77.4784C49.116 76.8359 48.9511 76.1998 48.9059 75.501C48.8328 74.2654 49.1022 73.2165 48.7944 72.0868C49.1028 72.0921 49.4215 72.0921 49.7773 72.091C51.0364 72.0916 52.13 72.3291 53.4022 72.2652C54.1019 72.2289 54.8529 72.0232 55.5254 71.8447C57.259 71.3819 56.8522 73.081 57.1105 73.7931C57.3083 74.3294 57.2489 75.0661 57.2672 75.6277L57.267 75.6228Z" fill="#432A05"/>
<path d="M22.7734 59.2083C22.536 58.2166 22.2333 57.3106 21.4606 57.1917C20.7034 52.3871 20.64 47.5906 19.1712 42.8621C19.0673 42.5307 18.7648 42.3875 18.4356 42.3632C16.8792 42.239 15.3388 42.3702 13.8776 42.8731C13.9084 42.7245 13.7023 42.6078 13.5962 42.7292C12.8179 43.6096 12.7417 44.8226 12.7919 46.0219C12.7934 46.0563 12.7946 46.0858 12.7961 46.1202C12.8034 46.5481 12.8317 46.9705 12.8813 47.3972C12.8877 47.5495 12.8941 47.7019 12.9001 47.8444C12.9896 50.9914 12.9535 54.1718 13.2334 57.3129C13.2514 57.4895 13.3439 57.6737 13.4814 57.7974C13.1514 57.8814 12.8446 58.0139 12.7992 58.3205C12.6821 59.0623 12.867 59.6866 13.2698 60.3287C13.531 60.7488 14.2847 61.1734 14.8047 60.9506C16.0842 60.4042 17.9202 60.6329 19.3054 60.5901C20.4581 60.5545 23.2401 61.1231 22.7789 59.2131L22.7734 59.2083ZM19.3075 52.4302C19.4784 53.9801 19.4638 55.5259 19.6554 57.0654C18.7245 56.9612 17.9972 56.2799 17.0463 56.329C16.1218 56.3772 15.4876 56.5297 14.6628 56.9341C14.6421 56.9446 14.6319 56.9548 14.6112 56.9652C14.6057 55.0657 14.478 53.1552 14.3557 51.2494C14.362 51.1459 14.3629 51.0425 14.3639 50.9391C14.9309 51.0791 15.5646 51.0398 16.1466 51.0317C16.6544 51.021 17.1506 50.9859 17.6569 50.9408C18.1632 50.8956 18.6056 50.9656 19.0746 51.0397C19.1679 51.4994 19.2508 51.9595 19.3021 52.4255L19.3075 52.4302ZM14.8547 43.5762C16.0795 43.622 17.7489 43.664 17.757 43.8557C17.8228 45.1726 18.1725 46.6973 18.4079 48.0188C18.4981 48.5279 18.6145 49.0312 18.7307 49.5296C18.2056 49.5064 17.6527 49.5776 17.2047 49.6259C16.3301 49.7268 15.2077 49.599 14.3202 49.8971C14.25 49.1069 14.1162 48.3138 14.0991 47.5269C14.0837 46.9072 13.936 46.2868 13.8994 45.6678C13.8371 44.6854 14.2337 44.1712 14.8545 43.5713L14.8547 43.5762ZM19.773 59.4929C18.4485 59.4699 17.1082 59.5753 15.7811 59.6162C15.2101 59.6339 14.2458 59.9934 13.9078 59.2558C13.6511 58.6879 14.0779 58.3893 14.4015 58.0249C14.5898 58.3488 14.9592 58.5737 15.3817 58.4228C17.3163 57.7183 18.9647 59.1537 20.935 58.6696C21.0555 58.6413 21.1692 58.5738 21.2712 58.4821C21.3465 58.6372 21.4164 58.7876 21.4864 58.943C21.5518 59.1132 21.6068 59.2887 21.6565 59.4643C21.0268 59.5969 20.4034 59.503 19.7677 59.4931L19.773 59.4929Z" fill="#432A05"/>
<path d="M36.269 56.5666C36.1823 54.4975 36.0372 51.5395 35.7922 49.4802C35.5696 47.5777 35.367 45.5221 34.8503 43.673C34.4456 42.2239 33.5918 41.8025 32.1478 41.5666C30.9487 41.3674 29.9713 41.2795 29.2624 42.2955C29.2449 42.2567 29.2272 42.2129 29.2042 42.1693C29.0778 41.9321 28.628 41.9312 28.5277 42.1902C28.0831 43.326 28.2744 44.4814 28.4037 45.6732C28.5825 47.2867 28.6555 48.9035 28.7973 50.5182C28.9106 51.8335 29.1035 54.0371 29.1536 55.3593C29.1732 55.8262 29.2069 56.2533 29.3602 56.6275C29.2968 56.6294 29.2334 56.6314 29.1752 56.6332C27.8101 56.7639 27.5221 59.2383 28.9225 59.569C29.9272 59.8037 30.9668 59.4813 31.981 59.4352C33.0266 59.3832 34.257 59.3206 35.2194 59.8075C35.6952 60.0487 36.1702 60.2703 36.6844 60.4168C37.0699 60.523 37.408 60.2566 37.5158 59.9236C37.8961 58.7702 37.5209 57.0151 36.2585 56.5669L36.269 56.5666ZM34.6681 56.3749C33.44 56.2406 32.1302 56.0498 31.0722 56.5647C31.0462 56.3244 30.9508 56.0665 30.9431 55.7568C30.9079 54.2864 30.6981 51.9308 30.5519 50.4639C30.5415 50.3412 30.5311 50.2185 30.5207 50.0958C31.1889 50.1293 31.8381 50.4685 32.5063 50.502C33.0314 50.5301 33.6915 50.6228 34.2983 50.5795C34.4668 52.2032 34.594 54.7336 34.6679 56.37L34.6681 56.3749ZM29.5199 42.883C30.4364 42.7808 31.2496 42.864 32.1624 43.0523C33.7744 43.3814 33.403 45.2531 33.6526 46.4116C33.8366 47.2671 33.9837 48.1238 34.1045 48.9861C33.3654 49.0287 32.5656 49.265 31.8939 49.1479C31.4621 49.0727 30.8962 49.0803 30.4434 49.2616C30.3578 48.2309 30.2829 47.1998 30.1232 46.1664C29.9563 45.0889 29.876 43.93 29.5093 42.8833C29.5093 42.8833 29.5146 42.8831 29.5199 42.883ZM35.2859 58.7425C34.5215 58.5595 33.7878 58.4788 33.008 58.434C32.5518 58.4087 29.2685 58.7316 29.334 58.1489C29.3722 57.7983 29.8932 57.7281 30.1207 57.475C30.2663 57.5394 30.4291 57.5098 30.5639 57.4416C30.5911 57.4605 30.6237 57.4792 30.6611 57.4878C31.5601 57.7258 32.6393 57.7171 33.5795 57.8012C34.1693 57.8568 34.7399 57.9622 35.3239 58.0081C35.8496 58.0509 35.9626 58.5986 36.0273 59.133C35.7518 58.9988 35.4356 58.7773 35.2807 58.7427L35.2859 58.7425Z" fill="#432A05"/>
<path d="M53.4083 55.4576C53.3 55.2739 53.0779 55.1577 52.8161 55.1018C52.7744 54.4878 52.6325 53.8819 52.454 53.2869C52.116 52.1751 51.987 50.9928 51.7382 49.8586C51.6925 49.6533 51.6521 49.4478 51.6115 49.2374C51.7304 49.0418 51.7254 48.7958 51.5023 48.655C51.1617 46.7213 50.9295 44.7203 50.0972 42.9346C49.4047 41.4498 47.4105 41.1324 45.9087 41.0656C45.3356 41.039 44.1181 41.3079 44.0594 41.9299C44.0024 41.9612 43.9512 42.0021 43.9061 42.0626C43.0037 43.4047 43.5237 45.702 43.6877 47.213C43.9147 49.3421 44.1628 51.4707 44.2419 53.6094C44.2633 54.1206 44.2743 54.7601 44.4457 55.311C44.143 55.4188 43.8583 55.5753 43.6185 55.7943C43.0983 56.2731 43.3549 57.8451 43.5017 58.4411C43.8027 59.682 46.2542 59.1584 47.0636 59.1334C49.1691 59.0733 51.1694 58.6523 53.3005 58.9507C53.716 59.0068 54.1556 58.752 54.1209 58.3052C54.0523 57.4263 53.8588 56.2214 53.4083 55.4576ZM50.1233 49.746C50.3099 50.5327 50.4804 51.315 50.551 52.1151C50.6415 53.1361 50.8962 54.285 51.2097 55.3188C49.9985 55.2331 48.7292 55.4052 47.5323 55.4077C46.3777 55.4089 45.7831 55.1221 45.7192 53.9772C45.6781 53.25 45.6478 52.5274 45.612 51.8C45.5809 51.0577 45.4958 50.2925 45.4002 49.5276C46.2796 49.658 47.2067 49.6638 48.082 49.6958C48.7186 49.7205 49.4417 49.7867 50.1284 49.7409L50.1233 49.746ZM44.6696 42.0833C45.5858 41.7007 48.3814 42.8153 48.711 43.2235C49.013 43.603 49.0636 44.3054 49.1985 44.7442C49.4745 45.6413 49.5314 46.6191 49.6656 47.5452C49.6958 47.7608 49.7364 47.9712 49.777 48.1816C49.3458 48.131 48.9055 48.115 48.4708 48.1038C47.4158 48.0823 46.2559 47.9557 45.2035 48.121C45.1582 47.7976 45.1077 47.4792 45.0628 47.1656C44.9435 46.3423 44.8981 45.5119 44.8529 44.6864C44.8096 43.9051 44.5388 43.1309 44.7072 42.348C44.7293 42.2439 44.7097 42.1559 44.6749 42.0832L44.6696 42.0833ZM46.4251 57.9275C45.8644 57.9449 45.2984 57.9623 44.7379 57.9846C44.5845 57.9893 44.6847 57.0953 44.6911 56.9967C44.6967 56.7504 44.8561 56.5092 45.0903 56.2854C45.2324 56.3893 45.4003 56.4776 45.5987 56.5355C46.5207 56.7974 47.4743 56.8024 48.4214 56.7781C49.6909 56.7389 51.0405 56.84 52.2594 56.4775C52.2773 56.5262 52.2914 56.6094 52.3128 56.7416C52.3626 57.0453 52.4543 57.3378 52.5515 57.635C50.4836 57.5807 48.5037 57.8584 46.4304 57.9274L46.4251 57.9275Z" fill="#432A05"/>
<path d="M21.1704 29.8283C20.929 29.5011 20.6474 29.3523 20.3326 29.2932C20.2457 28.4838 20.0956 27.6813 20.0559 26.8606C19.9983 25.7402 19.9104 24.3993 19.5482 23.3376C18.7156 20.9074 19.1568 18.2952 18.6088 15.8316C18.2817 14.3455 15.2311 14.0706 14.0594 14.161C13.2624 14.22 12.2624 14.4872 11.6537 14.9981C11.4338 15.1821 11.4404 15.4673 11.5264 15.7501C11.2027 17.7534 11.5051 19.9145 11.7604 21.9638C11.6126 22.1013 11.6254 22.406 11.7947 22.5288C11.8057 22.5383 11.8164 22.5429 11.8327 22.5522C11.8583 22.7827 11.8836 23.0083 11.909 23.2339C12.0445 24.5734 12.128 25.9341 12.2162 27.2799C12.2696 28.174 12.2354 29.2529 12.6877 30.0657C12.4999 30.1306 12.3181 30.2149 12.153 30.3185C11.9341 30.276 11.6887 30.3574 11.5597 30.5632C10.7757 31.8178 11.6357 32.7559 13.0262 32.836C15.6692 32.9857 18.3631 32.7056 21.016 32.7123C21.3495 32.7118 21.6072 32.4184 21.5995 32.1086C21.5798 31.3857 21.6418 30.4634 21.1812 29.8329L21.1704 29.8283ZM13.1332 15.8088C13.9962 15.6837 14.768 15.6549 15.6278 15.8302C17.6358 16.2406 17.3723 18.5422 17.4412 20.0609C17.4561 20.4148 17.5024 20.7628 17.5593 21.1105C16.7431 21.0914 15.9128 21.2401 15.1046 21.2847C14.439 21.32 13.7015 21.2838 13.0235 21.4031C12.8735 19.7196 12.6625 17.9691 12.2612 16.3525C12.4716 15.8144 12.412 15.9098 13.1332 15.8088ZM14.7305 22.9696C15.7681 22.9671 16.8513 22.914 17.862 22.6465C18.0567 23.5018 18.2461 24.3572 18.2876 25.2221C18.3451 26.5935 18.6835 27.971 18.8577 29.3485C17.5177 29.4638 16.1939 29.4603 14.8523 29.6642C14.5208 29.7138 14.1676 29.7493 13.8149 29.7996C13.9766 28.9825 13.6521 28.0624 13.6012 27.2273C13.5181 25.8764 13.266 24.5356 13.167 23.1852C13.1642 23.1164 13.1611 23.0427 13.1529 22.9741C13.6683 23.0172 14.2066 22.976 14.7358 22.9695L14.7305 22.9696ZM16.6503 31.7594C15.6397 31.7759 13.2852 32.1931 12.6906 31.2714C13.9071 31.3667 15.447 30.8418 16.5228 30.7397C17.4775 30.6511 18.4435 30.7099 19.3965 30.582C20.0861 30.4869 20.1753 30.2134 20.32 31.1392C20.3418 31.2812 20.3531 31.4236 20.3539 31.5712C19.1185 31.6537 17.8832 31.741 16.645 31.7596L16.6503 31.7594Z" fill="#432A05"/>
<path d="M36.0356 29.4244C36.0245 29.1589 35.9097 28.9459 35.7381 28.7691C35.6355 27.8372 35.34 26.9752 35.3629 26.005C35.3863 24.9215 35.0909 23.9365 34.8979 22.8696C34.4794 20.5891 34.2231 18.2642 33.7314 16.0056C32.9905 12.6031 29.2947 13.6031 26.9733 14.8068C26.9215 14.833 26.8857 14.8636 26.8554 14.899C26.479 14.886 26.0862 15.1147 26.095 15.5771C26.1046 16.689 25.902 17.7928 26.0913 18.8992C26.2945 20.0839 26.4713 21.2695 26.5744 22.4672C26.6706 23.6257 26.7194 24.7906 26.8209 25.9489C26.902 26.8717 26.8779 27.8124 27.1529 28.6898C27.1476 28.69 27.137 28.6903 27.1317 28.6904C27.1159 28.6909 27.1053 28.6913 27.0895 28.6917C27.0055 28.7091 26.927 28.7312 26.8432 28.7535C26.6443 28.8088 26.571 28.9538 26.588 29.1059C26.0581 29.7276 26.2411 31.4396 26.5285 31.9819C26.9603 32.8101 29.4332 32.3154 30.1156 32.3042C31.9833 32.276 33.9506 32.4761 35.7964 32.3059C36.0919 32.282 36.2376 32.0954 36.2609 31.8929C36.8183 31.1719 36.0906 30.2298 36.0515 29.4239L36.0356 29.4244ZM33.5239 23.0547C33.5865 23.4121 33.6544 23.7692 33.7166 24.1167C33.8619 24.9292 33.941 25.6798 33.9119 26.5026C33.8893 27.0988 34.0391 27.6404 34.1524 28.198C33.3837 28.1725 32.4959 28.3377 31.8142 28.3686C30.7415 28.4165 29.5443 28.3994 28.4051 28.5035C28.7178 26.8697 28.1951 24.8828 28.0575 23.2432C28.0891 23.2374 28.1204 23.2265 28.157 23.2156C29.4003 23.1969 30.6384 23.1783 31.8818 23.1596C32.4162 23.1529 32.9638 23.0819 33.5032 23.0652C33.5137 23.0649 33.519 23.0647 33.5296 23.0644L33.5239 23.0547ZM27.4992 15.4796C28.6104 15.2139 29.4844 14.7194 30.6826 14.6332C33.0525 14.4615 32.9654 17.3089 33.0008 18.9122C33.0216 19.7876 33.1287 20.6997 33.273 21.6156C32.5579 21.4801 31.7583 21.6033 31.0449 21.6352C30.0621 21.6803 29.074 21.7256 28.0914 21.7756C28.0377 21.7576 27.9843 21.7494 27.9315 21.751C27.8454 20.9613 27.7277 20.1726 27.5993 19.3842C27.3802 18.072 27.5197 16.852 27.5015 15.5336C27.5006 15.514 27.5 15.4992 27.4994 15.4845L27.4992 15.4796ZM27.8302 29.9435C27.8302 29.9435 27.8395 29.9137 27.8488 29.8839C27.8903 29.8629 27.9318 29.842 27.9733 29.821C28.0094 29.8002 28.0501 29.7596 28.0804 29.7242C29.3244 29.8482 30.6814 29.634 31.8598 29.5829C32.4886 29.5536 33.1115 29.5097 33.7382 29.4313C34.049 29.3922 34.2725 29.4197 34.4399 29.4982C34.5066 29.5749 34.5884 29.6315 34.6749 29.6731C34.9083 29.9366 34.9841 30.3575 35.1666 30.7948C35.4134 31.3777 34.8901 31.2708 34.4132 31.261C32.9599 31.1976 31.5266 31.232 30.0524 31.3021C29.9784 31.3044 29.6988 31.3278 29.3399 31.3537C29.2282 31.3424 29.1166 31.3311 29.0051 31.3247C28.4953 31.2863 28.0092 31.1832 27.6853 30.9077C27.6845 30.8881 27.6836 30.8684 27.6828 30.8487C27.712 30.6608 27.7573 30.4773 27.7757 30.2848C27.786 30.1516 27.7938 30.0874 27.8251 29.9486L27.8302 29.9435Z" fill="#432A05"/>
<path d="M50.0602 27.8319C49.9607 27.6037 49.7974 27.4955 49.5427 27.4788C49.4951 27.4803 49.4471 27.4719 49.3993 27.4684C49.2281 25.151 48.9195 22.8378 48.5955 20.5349C48.4061 19.1727 48.2907 17.8082 48.0804 16.4516C47.9068 15.3399 48.0438 14.189 47.5296 13.1568C47.4661 13.0308 47.2902 13.0018 47.1604 13.0599C47.0938 12.9881 46.9964 12.937 46.859 12.9413C45.3828 12.9475 43.6046 12.6924 42.1621 12.9978C40.7771 13.2866 40.6952 14.111 40.8298 15.3026C41.3024 19.3824 41.3232 23.54 41.4898 27.6439C41.4917 27.6882 41.4984 27.7224 41.5053 27.7616C41.3399 27.8552 41.3132 28.1021 41.4302 28.2412C40.889 29.3455 41.2808 30.8638 42.7521 30.8676C43.9854 30.8738 45.1762 30.7484 46.4183 30.838C47.554 30.9161 48.7511 30.943 49.8831 30.8047C50.1358 30.7723 50.3091 30.6144 50.309 30.3585C50.3201 29.4872 50.4178 28.6623 50.0553 27.8419L50.0602 27.8319ZM47.959 27.321C46.3801 27.1484 44.6151 26.9568 43.0917 27.2254C43.0099 25.2742 42.9958 23.2964 42.9031 21.3358C43.7077 21.3404 44.5104 21.3009 45.3075 21.3796C46.009 21.4514 46.6777 21.4947 47.369 21.4488C47.6199 23.3947 47.8346 25.3614 47.9588 27.3161L47.959 27.321ZM42.782 14.2778C44.1624 14.1318 45.4998 13.8444 46.8796 13.6837C46.6686 14.5859 46.773 15.5619 46.8433 16.48C46.9436 17.7367 47.055 19.0078 47.2132 20.2578C45.7544 20.1749 44.2986 20.1608 42.8373 20.2699C42.792 19.5676 42.7308 18.8658 42.6538 18.1645C42.5807 17.5565 41.6488 14.3866 42.7816 14.268L42.782 14.2778ZM44.9665 29.9134C44.3193 29.8743 42.3073 30.3548 42.1617 29.2816C42.1166 28.9631 42.1226 28.7267 42.0593 28.4777C43.1712 28.7435 44.3779 28.4946 45.5217 28.5134C46.8406 28.5416 48.0207 28.9185 49.2827 28.599C49.4337 29.047 49.423 29.5493 49.4217 30.0218C48.0306 30.2911 46.3511 29.9936 44.9718 29.9132L44.9665 29.9134Z" fill="#432A05"/>
</svg>
