<svg width="32" height="33" viewBox="0 0 32 33" fill="none" xmlns="http://www.w3.org/2000/svg">
<path d="M8.82667 15.0019C10.7467 18.7752 13.84 21.8552 17.6133 23.7886L20.5467 20.8552C20.9067 20.4952 21.44 20.3752 21.9067 20.5352C23.4 21.0286 25.0133 21.2952 26.6667 21.2952C27.4 21.2952 28 21.8952 28 22.6286V27.2819C28 28.0152 27.4 28.6152 26.6667 28.6152C14.1467 28.6152 4 18.4686 4 5.94857C4 5.21523 4.6 4.61523 5.33333 4.61523H10C10.7333 4.61523 11.3333 5.21523 11.3333 5.94857C11.3333 7.61523 11.6 9.21523 12.0933 10.7086C12.24 11.1752 12.1333 11.6952 11.76 12.0686L8.82667 15.0019Z" fill="#422800"/>
</svg>
