<svg width="110" height="110" viewBox="0 0 110 110" fill="none" xmlns="http://www.w3.org/2000/svg">
<path d="M58.8386 93.6404C56.389 96.0233 46.8433 98.5664 40.5511 98.7014C36.4358 99.7445 45.6896 89.21 46.1151 79.3691C46.5405 69.5282 43.8689 57.0657 41.6666 48.3775C39.4643 39.6894 40.9006 57.3707 34.2726 61.4448C14.0622 73.8675 5.85081 47.2367 14.3848 32.9072C22.9188 18.5776 39.205 20.2891 50.0592 25.8108C59.5077 30.6175 72.3747 80.4728 58.8386 93.6404Z" fill="#FBB800"/>
<path d="M55.095 92.6152C52.3591 93.8154 45.0045 96.4493 39.5036 96.5673C35.9059 97.4793 42.2631 83.9554 42.635 75.3523C43.0069 66.7491 40.6713 55.854 38.746 48.2586C36.8207 40.6632 38.0763 56.1207 32.282 59.6823C14.6135 70.5426 7.43485 47.2612 14.8955 34.7339C22.3562 22.2067 36.1216 21.7688 46.0831 28.5301C57.0397 35.967 61.987 89.5917 55.095 92.6152Z" fill="#FFCE48" stroke="#432A05" stroke-width="4"/>
<path d="M91.6199 82.7736C88.338 83.7264 79.0844 86.0922 72.8283 85.405C68.6121 85.9022 79.1615 76.6653 80.8674 66.9641C82.5733 57.2628 81.5508 44.5582 80.5011 35.657C79.4514 26.7558 78.5681 44.4733 71.4651 47.6476C49.8066 57.3269 45.1404 29.8522 55.4713 16.7589C65.8022 3.66548 85.1537 7.90938 91.7667 14.3784C103.797 26.1466 99.8873 80.3735 91.6199 82.7736Z" fill="#FBB800"/>
<path d="M88.0422 81.2695C85.1731 82.1024 77.5377 83.7541 72.0685 83.1533C68.3825 83.588 76.45 71.0093 77.9414 62.5283C79.4328 54.0472 78.5389 42.9405 77.6212 35.1588C76.7035 27.3771 75.9313 42.8663 69.7217 45.6414C50.7872 54.1032 46.7079 30.0841 55.7395 18.6375C64.771 7.19091 81.4253 10.8902 87.4699 16.5564C97.0775 25.5627 95.2698 79.1712 88.0422 81.2695Z" fill="#FFCE48" stroke="#432A05" stroke-width="4"/>
</svg>
