<svg width="174.87px" height="125.19px" viewBox="0 0 200 164" fill="none" xmlns="http://www.w3.org/2000/svg">
<path d="M183.225 123.96C181.889 119.533 179.667 116.385 176.928 114.282C191.558 86.5399 169.032 53.4737 141.716 38.8947C111.481 22.7503 75.14 28.2746 54.5905 54.8258C51.5301 57.0093 49.1693 59.6737 47.5369 62.6614C35.7198 59.1166 22.9413 59.198 17.6183 71.5319C11.4979 85.7026 24.5561 93.3034 37.933 94.8521C38.3744 98.083 39.2722 101.343 40.7411 104.599C43.6263 111.101 52.9389 114.975 58.9341 109.662C60.3952 108.354 61.7036 106.991 62.8542 105.599C71.298 111.107 84.4032 101.363 80.386 91.6942C87.5182 89.223 90.6487 81.1592 86.7172 74.439C89.8963 73.0919 93.5033 71.6329 94.7364 71.4238C100.536 70.4471 107.054 71.3396 112.136 74.4409C121.251 79.9903 125.656 91.2509 125.276 101.8C122.973 101.922 120.578 102.543 118.147 103.81C110.542 107.824 108.247 117.561 115.335 123.501C115.76 123.85 116.211 124.204 116.663 124.558C115.256 126.609 114.128 129.065 113.643 131.42C112.669 136.157 114.108 141.064 117.56 144.465C122.738 149.566 128.546 149.134 134.13 146.815C139.617 156.019 148.811 162.18 160.41 155.773C164.787 153.368 167.483 150.059 168.818 146.474C171.484 146.147 174.087 145.427 176.461 143.879C182.952 139.715 185.376 131.061 183.208 123.903L183.225 123.96Z" fill="#FBB800"/>
<path d="M74.5256 62.2416C72.6254 65.5061 77.2751 68.1483 79.8716 66.4232C92.0673 58.3869 106.527 51.6334 121.094 57.962C136.464 64.6546 141.325 81.2941 137.517 96.4848C135.925 102.82 146.414 105.606 148.618 99.4913C164.622 55.1635 98.7997 20.5115 74.5256 62.2416Z" fill="#FFCE48"/>
<path d="M163.26 99.6147C166.86 85.4178 166.77 71.4971 157.292 59.6082C148.633 48.738 134.766 40.3647 121.63 36.3074C98.9302 29.307 67.6356 37.6817 65.725 65.2226C65.4344 69.4874 71.6113 71.6483 73.3047 67.2869C81.491 46.27 103.526 41.6071 123.076 49.4982C131.827 53.0258 141.718 59.2331 147.702 66.7628C155.365 76.392 154.199 86.933 151.412 98.0196C149.535 105.47 161.396 106.987 163.291 99.5932L163.26 99.6147Z" fill="#FFCE48"/>
<path d="M148.65 38.9918C116.159 20.7785 84.9599 23.8751 56.967 48.3598C53.9252 51.0355 56.5433 56.9183 60.6812 54.9317C70.3913 50.2431 79.5936 44.3211 89.8092 40.7296C105.135 35.3294 119.921 37.7874 134.457 44.4361C145.962 49.6891 158.824 56.8739 164.498 68.7736C170.822 82.0143 167.253 96.4884 161.603 109.278C158.588 116.114 169.327 120.657 172.293 113.785C185.549 83.158 178.29 55.5705 148.681 38.9703L148.65 38.9918Z" fill="#FFCE48"/>
<path d="M182.931 129.281C183.777 121.234 177.075 115.854 170.05 115.657C177.91 101.478 183.975 85.2334 178.024 69.2093C172.094 53.2163 157.001 41.4418 142.416 33.7249C113.425 18.3511 68.4849 18.7732 51.9648 52.2526C51.8332 52.5273 51.8378 52.7997 51.9044 53.0292C51.2975 53.0812 50.6809 53.1857 50.0858 53.3214C45.8173 54.3879 41.7287 57.4426 40.1478 61.6345C39.8365 62.4466 39.6565 63.2828 39.5554 64.1333C33.9299 59.8463 24.2816 62.2651 21.4411 69.4856C17.7553 78.8057 26.2274 87.2791 35.2391 88.4917C32.6795 94.3242 35.1982 101.791 41.659 104.628C48.3681 107.593 55.9266 103.977 58.4484 97.7577C61.3573 101.901 68.4168 103.246 72.6199 100.456C76.6676 97.7744 77.8419 91.4986 75.9632 86.9188C82.0786 85.9997 86.6085 78.5991 84.6123 71.9882C84.324 71.0393 83.9163 70.1501 83.4153 69.3252C105.331 45.848 148.789 69.7319 130.641 100.823C130.407 101.215 130.397 101.566 130.466 101.931C126.497 99.5766 121.907 98.9822 117.923 102.653C112.705 107.43 115.583 114.12 120.287 118.103C113.036 121.965 109.431 129.507 116.7 136.539C120.598 140.32 126.017 143.211 131.621 142.117C133.846 141.682 135.878 140.669 137.447 139.217C139.337 147.004 147.006 153.185 155.387 151.458C161.34 150.238 166.018 142.919 164.578 137.278C167.53 138.66 170.688 139.508 173.809 139.074C178.906 138.376 182.432 134.241 182.967 129.233L182.931 129.281ZM138.801 36.5674C151.989 43.16 166.232 53.6387 172.544 67.3931C180.084 83.789 173.594 99.9831 165.576 114.73C165.871 111.335 164.239 108.077 161.726 105.336C161.943 105.186 162.144 104.978 162.302 104.709C193.684 50.8349 87.9082 3.58493 62.2302 57.0075C60.1821 54.8408 57.2445 53.3806 54.1481 53.0862C75.7487 26.7271 108.367 21.3642 138.796 36.5936L138.801 36.5674ZM125.023 45.2377C105.43 36.6871 82.7372 42.7234 72.1513 61.8623C71.8306 62.4283 72.0021 62.9756 72.3912 63.3726C69.7079 63.3439 67.0645 64.1371 64.9314 66.0013C65.4185 63.782 65.0429 61.6766 64.1581 59.8311C78.2453 37.2857 104.493 32.6052 128.305 42.8777C153.549 53.7918 171.299 75.0954 159.054 102.866C156.829 101.074 154.29 99.6595 151.923 98.7924C163.81 76.2521 145.343 54.1116 125.023 45.2377ZM73.374 83.4039C72.5669 82.7676 71.657 82.2483 70.5725 81.9414C68.6352 81.3973 66.6067 83.878 68.6006 85.3015C70.6684 86.7657 72.1963 88.2127 72.612 90.8414C72.9921 93.2193 72.3349 95.9235 70.2572 97.3361C66.2166 100.128 61.7007 97.3473 59.2858 93.9187C59.3174 93.2998 59.3181 92.7025 59.2446 92.0644C59.0315 89.9616 55.6243 89.882 55.4717 92.0538C55.0311 98.328 49.8028 103.754 43.2369 100.898C38.0325 98.6157 37.07 93.0356 39.1482 88.5001C39.8199 88.2426 40.1023 87.5882 40.0337 86.9239C40.3399 86.4367 40.6941 85.9855 41.0744 85.539C42.0981 84.3954 40.4366 82.7882 39.2196 83.652C38.6912 84.0171 38.2368 84.4229 37.7825 84.8287C32.098 82.3504 23.705 81.1695 24.9455 72.8961C26.2485 64.2811 35.9065 64.3354 40.862 69.6134C40.9742 69.7425 41.0913 69.8454 41.2035 69.9745C41.2942 70.0726 41.3634 70.1395 41.4637 70.185C41.9531 70.6275 42.4832 70.996 43.1639 71.2833C45.3375 72.1694 46.9505 69.2869 45.2435 67.78C40.7025 63.7998 48.3993 58.0915 51.9984 57.4186C58.016 56.2916 63.3487 61.8829 61.5463 67.881C61.2587 68.8604 61.9461 69.5563 62.7012 69.5857C62.927 70.8762 64.2809 71.9384 65.4886 70.8284C69.5922 67.0976 76.0522 65.4811 79.6288 71.023C82.9907 76.2541 79.4376 84.1048 73.3525 83.3729L73.374 83.4039ZM81.7946 67.3453C79.8324 65.303 77.191 64.0055 74.4532 63.5322C74.5201 63.463 74.6086 63.4249 74.6804 63.3294C85.5566 48.0998 103.551 40.8788 121.455 48.1161C129.98 51.548 138.029 56.9841 143.838 64.129C147.433 68.5336 150.092 74.0436 150.956 79.7144C151.059 82.1231 151.136 84.5269 151.239 86.9355C149.415 90.0783 149.083 93.0863 150.184 95.9761C149.532 95.8297 148.796 95.9939 148.293 96.6625C148.226 96.7317 148.186 96.8057 148.124 96.8487C147.913 97.1089 147.824 97.4457 147.757 97.8136C142.021 97.254 135.653 99.4034 133.921 104.572C133.527 104.202 133.076 103.848 132.651 103.498C133.143 103.48 133.59 103.263 133.923 102.78C157.228 70.5139 101.474 36.0455 81.7517 67.2832L81.7946 67.3453ZM160.771 130.173C158.6 128.826 156.122 131.686 158.078 133.32C157.929 133.836 157.955 134.438 158.224 134.895C159.956 137.9 161.088 141.067 158.952 144.288C156.973 147.24 153.085 147.86 149.855 147.107C143.942 145.727 141.692 140.509 140.007 135.313C140.218 134.754 140.376 134.186 140.482 133.607C140.9 131.321 137.426 130.415 136.576 132.541C133.264 140.707 124.127 137.951 119.195 132.84C113.97 127.404 119.054 123.363 123.73 120.362C124.353 120.666 124.96 120.912 125.581 121.08C127.308 121.586 128.949 119.442 127.309 118.164C126.975 117.913 126.609 117.684 126.275 117.432C126.025 116.871 125.404 116.404 124.728 116.389C123.245 115.439 121.819 114.473 120.757 113.002C118.676 110.123 118.714 106.057 122.304 104.54C126.602 102.719 130.422 105.59 133.559 108.634C133.594 108.885 133.582 109.1 133.618 109.351C133.78 110.25 134.709 110.664 135.488 110.562C135.898 110.99 136.287 111.387 136.655 111.753C137.715 112.788 138.961 111.169 138.341 110.106C137.893 109.29 137.334 108.482 136.723 107.665C139.053 94.9192 166.852 104.182 160.19 118.2C159.799 118.997 160.1 119.731 160.611 120.205C160.815 120.867 161.463 121.338 162.285 120.999C165.985 119.476 169.945 118.462 173.824 120.121C177.428 121.649 179.339 125.311 178.748 129.141C177.214 139.316 165.774 133.26 160.754 130.116L160.771 130.173Z" fill="#432A05"/>
<path d="M156.971 110.252C155.631 107.78 153.174 105.62 150.302 105.285C148.895 105.109 148.27 107.195 149.636 107.743C151.635 108.543 153.235 109.596 154.227 111.597C155.262 113.66 154.723 115.272 154.685 117.411C154.655 118.763 156.403 119.897 157.382 118.555C159.03 116.222 158.247 112.63 156.993 110.283L156.971 110.252Z" fill="#432A05"/>
<path d="M36.5241 78.7872C32.1278 78.4725 29.2152 75.6861 28.9469 71.2105C28.8881 70.195 27.5237 70.3801 27.3174 71.2114C25.9937 76.3737 31.3288 82.1013 36.536 81.3964C37.9841 81.1994 38.0508 78.9033 36.5504 78.792L36.5241 78.7872Z" fill="#432A05"/>
</svg>
