<svg width="91" height="92" viewBox="0 0 91 92" fill="none" xmlns="http://www.w3.org/2000/svg">
<path d="M73.4761 39.484C69.9773 38.6353 66.5634 37.676 63.148 36.6554C62.8524 31.1412 62.5434 25.5901 62.1853 20.0758C61.7291 13.0877 53.3089 11.5494 48.8515 15.5758C45.1897 18.8657 41.0646 22.659 37.0228 26.7961C33.8473 25.3458 30.6956 23.8463 27.5782 22.2117C19.1912 17.8979 13.0362 28.838 19.0515 34.9439C21.0904 36.9956 23.0429 39.0964 25.0326 41.1849C21.5284 46.3416 18.8181 51.7319 17.6107 57.1842C12.0076 62.9909 17.4114 74.8687 26.2926 71.1386C32.4613 68.5497 38.6984 66.2064 44.9891 64.0105C46.9371 66.4429 48.9223 68.863 50.8211 71.3322C55.4839 77.3885 64.882 74.3341 64.6001 66.7935C64.4918 63.8583 64.321 60.9231 64.2127 57.9879C67.755 57.0067 71.2988 56.087 74.8947 55.2533C83.4674 53.2547 80.9161 41.3658 73.5148 39.5331L73.4761 39.484Z" fill="#FBB800"/>
<path d="M62.285 52.8037C63.061 52.8163 63.8237 52.792 64.6012 52.866C70.0797 53.3102 74.1728 45.0712 67.8395 42.9074C65.6187 42.1328 63.4113 41.3951 61.1905 40.6206C60.4018 35.929 59.2004 31.2495 57.5626 26.6312C56.4609 23.4868 51.5217 22.0604 49.3897 24.9702C47.1117 28.0518 44.859 31.1458 42.6198 34.2765C38.7844 32.961 34.949 31.6455 31.1136 30.33C25.8021 28.5104 19.8027 35.0047 25.2076 39.1455C28.2668 41.48 31.1919 43.9619 34.0679 46.4806C32.9802 48.0767 31.8926 49.6728 30.8303 51.2812C29.9573 51.9195 29.071 52.5209 28.2367 53.2083C26.2256 54.9023 25.7932 57.211 26.2934 59.2744C26.341 59.692 26.4631 60.085 26.685 60.4658C28.0876 63.6348 31.6786 65.7117 34.965 62.9374C37.9073 60.4209 41.1593 58.2976 44.5855 56.6532C47.3839 59.5894 50.084 62.5993 52.6753 65.7688C55.2146 68.8523 61.3292 68.6949 61.817 64.0161C62.2138 60.2337 62.3365 56.5003 62.2596 52.7914L62.285 52.8037Z" fill="#FFCE48"/>
<path d="M69.9539 52.7332C73.6542 51.5556 77.3395 50.2798 81.0249 49.004C82.6754 48.4397 82.491 46.4992 81.1818 45.6513C75.4744 41.9403 69.3631 39.6414 62.7229 38.2389C62.3833 38.1651 62.0958 38.1773 61.8351 38.2631C62.3217 31.9755 61.3842 25.7855 59.5724 19.6566C59.0692 17.9862 57.0419 17.9731 55.9886 18.9184C51.0278 23.3376 45.6185 27.8427 41.4395 33.0359C41.3874 32.9499 41.3725 32.8517 41.2831 32.778C37.7846 29.8661 32.9706 28.4396 28.672 27.1116C25.9492 26.2755 21.2708 24.2474 19.5752 27.6117C18.1671 30.4481 21.308 34.6125 22.8508 36.8482C24.7957 39.6736 27.2858 42.7939 30.2869 44.7969C28.0609 48.4803 26.2044 52.4341 24.2956 56.3019C23.199 58.5611 20.3951 62.1461 22.209 64.7258C23.7369 66.8633 26.4629 66.2748 28.6139 65.7107C33.6875 64.4109 39.3137 63.1972 44.0538 61.0375C48.3026 67.0445 54.1275 71.996 60.4143 75.8669C61.786 76.7148 63.1417 75.3399 63.1359 74.0626C63.1145 67.9835 63.4402 61.7695 62.7053 55.6778C62.6562 55.1989 62.4478 54.8549 62.1663 54.5969C64.8415 54.4997 67.3948 53.4936 69.9152 52.684L69.9539 52.7332ZM60.4862 53.4173C60.2538 53.6383 60.288 54.019 60.4325 54.3015C59.8128 54.5469 59.3003 55.0871 59.2584 55.9467C59.076 60.8345 59.3314 65.7224 59.3619 70.6225C54.4336 67.0469 50.119 62.9802 45.87 58.5206C45.4589 58.0784 44.957 58.0167 44.5101 58.1639C44.2435 58.0042 43.9277 57.8813 43.4912 57.9425C40.4853 58.3344 37.6311 59.3158 34.7353 60.1252C33.1444 60.5667 26.7583 63.4749 25.531 62.3937C25.1989 62.1111 30.8893 50.5814 32.9336 46.1119C34.0597 46.1124 35.1309 44.8724 34.218 43.8527C32.48 41.8257 30.3397 40.2406 28.5779 38.2627C27.8065 37.4028 22.7101 31.5305 23.3047 30.2413C24.2568 28.2153 37.7273 34.2381 40.34 34.6566C40.4785 34.6935 40.5768 34.6199 40.7138 34.5954C40.8388 35.627 41.9603 36.4748 43.0314 35.7506C47.8834 32.5226 52.2871 28.3487 56.53 24.2485C57.7701 28.9772 58.1358 33.7669 57.8654 38.6423C57.7922 40.2757 59.4529 41.1728 60.6327 40.8048C60.8337 41.3575 61.2447 41.7998 61.9984 41.9229C66.9972 42.7108 71.6682 44.4319 76.0426 46.8283C73.5982 47.6748 71.1283 48.5089 68.6853 49.4168C65.8208 50.4842 62.6375 51.3058 60.4237 53.4173L60.4862 53.4173Z" fill="#432A05"/>
<path d="M36.0983 49.1345C33.9025 50.4355 32.2025 53.6156 31.7984 56.0594C31.6121 57.1523 33.0852 57.5336 33.6275 56.6741C34.3144 55.5813 34.8865 54.4026 35.6493 53.3467C36.3525 52.4136 37.2345 51.628 37.8617 50.6581C38.5247 49.6144 37.0368 48.6191 36.1117 49.1714L36.0983 49.1345Z" fill="#432A05"/>
</svg>
