<svg width="90" height="129" viewBox="0 0 130 129" fill="none" xmlns="http://www.w3.org/2000/svg">
<path d="M103.683 40.7216C100.199 41.9004 96.7536 43.1726 93.2898 44.4526C94.5796 40.0406 96.1808 36.0033 98.3307 31.9113C101.22 26.3871 93.527 21.5291 89.0875 24.9344C87.4122 26.2322 85.6946 27.4819 84.0037 28.7424C84.7074 25.9179 85.4112 23.0934 86.0963 20.2768C87.4191 14.9494 78.8226 11.3946 76.0371 16.1715C74.2644 19.2254 72.5025 22.2528 70.7298 25.3067C69.9822 22.5865 69.1972 19.8821 68.3484 17.1825C66.7105 11.9781 57.7857 13.1349 57.6064 18.6194C57.4892 22.0549 57.0674 25.2885 56.2976 28.4266C54.4946 26.282 52.8176 24.0185 51.1977 21.5771C47.4815 15.927 40.2893 21.6766 41.8032 27.1091C42.5538 29.784 43.3152 32.4324 44.0657 35.1073C41.6201 33.8925 39.3202 32.3965 37.0225 30.5918C31.7626 26.4481 25.2826 35.0428 30.7786 38.9113C31.8341 39.8529 32.9328 40.6884 34.0424 41.4973C36.1563 43.3353 37.9977 45.3098 39.6915 47.4563C34.412 46.5092 29.102 45.7508 23.7404 45.4978C19.1586 45.2688 14.9607 50.6614 18.5019 54.692C20.7677 57.2577 23.0701 59.5442 25.5496 61.6243C24.6006 61.8253 23.6517 62.0263 22.7027 62.2273C18.0513 63.193 15.9072 70.6467 21.3918 72.3432L32.0581 75.6436C29.0477 78.3163 25.9793 80.9033 22.7969 83.4284C18.4557 86.8583 21.805 92.8385 26.7007 92.7156C30.7046 92.6158 34.5013 92.0754 38.1891 91.119C37.9863 91.578 37.7835 92.0371 37.5806 92.4961C35.6636 96.7761 40.3493 100.809 44.4219 99.2513C46.8452 98.3207 49.131 97.2719 51.3057 96.116C51.0904 97.5917 50.8831 99.0861 50.6678 100.562C49.9262 105.755 56.5491 107.963 59.6653 104.234C62.1695 101.246 64.716 98.307 67.0983 95.2387C68.1103 99.7387 69.3967 104.211 70.4864 108.635C71.8665 114.167 80.1921 113.416 79.4937 107.465C78.9919 103.081 78.5187 98.8158 78.2932 94.513C81.5803 96.0557 84.9402 97.458 88.4103 98.7039C92.2098 100.053 97.1982 96.1754 95.0179 92.0345C93.1136 88.3934 91.7786 84.7987 90.9451 81.0373C94.663 82.245 98.3888 83.4714 102.099 84.6605C106.646 86.1135 112.546 80.5332 108.38 76.3253C105.935 73.8568 103.509 71.3805 101.072 68.9307C102.897 68.6692 104.73 68.4265 106.592 68.3038C111.345 67.9989 112.277 60.5926 107.79 59.0707C105.782 58.3753 103.743 57.7595 101.732 57.1094C104.62 54.5104 107.354 51.756 109.927 48.8274C113.622 44.5918 108.202 39.2839 103.677 40.8121L103.683 40.7216Z" fill="#FBB800"/>
<path d="M63.9997 23.5C60.5616 23.3141 62.5782 35.0976 59.4997 36.0002C46.9998 38.5001 28.4997 33.5 42.4997 49.0001C26.4998 70.0002 47.4998 77 45.4998 79.5001C63.9997 100 52.4998 107.5 81.4998 83C93.5853 75.8975 99.9998 62 92.9998 54.5C94.9998 12.5 101 37.5 71.4997 33.5L63.9997 23.5Z" fill="#FFCE48"/>
<path d="M107.531 43.5455C102.062 43.8214 96.521 44.0835 91.0577 44.6869C93.1119 39.4257 95.0787 34.1134 97.0721 28.8119C97.4138 27.8987 96.4274 26.5982 95.4172 27.1767C90.4304 30.0645 85.4405 32.9975 80.6275 36.1419C81.4517 30.9361 81.6614 25.6807 81.2271 20.4101C81.1382 19.4141 79.6665 18.9992 79.1016 19.8523C76.218 24.1868 73.3954 28.5615 70.6946 33.017C68.8263 28.4152 66.8271 23.8684 64.9588 19.2666C64.5817 18.3696 63.1315 18.3195 62.8055 19.2702C61.0285 24.4587 59.2957 29.8046 58.1056 35.1863C58.082 35.1302 58.0663 35.0928 58.0506 35.0555C54.6911 31.3003 51.2835 27.5874 48.0096 23.7743C47.2255 22.8505 45.9459 23.5204 45.9727 24.6305C46.029 29.1584 46.3614 33.7681 47.2299 38.2405C43.1314 37.0168 38.9404 36.0959 34.8035 35.0423C33.6955 34.7604 33.145 36.2232 33.704 36.9777C36.1581 40.4097 38.2089 44.0333 39.8988 47.8966C35.1095 47.6449 30.2363 47.9782 25.4575 48.1178C24.2835 48.1496 24.0219 49.7767 24.8426 50.4212C28.8878 53.5583 32.9879 56.8262 37.3018 59.6085C31.4658 61.7318 25.7967 64.3566 20.11 66.8348C18.9514 67.3218 19.2109 69.0378 20.434 69.2273C27.1391 70.3228 33.8817 71.4026 40.6342 72.1923C40.7206 72.3979 40.807 72.6034 40.9121 72.8011C35.866 77.6927 30.429 81.7591 23.9829 84.7325C22.605 85.3777 23.1386 87.4841 24.6756 87.3218C31.7181 86.6044 39.0374 85.133 45.4423 81.957C42.6319 87.2502 39.9512 92.6427 37.2548 97.9978C36.7527 99.0005 38.0007 100.191 38.9862 99.7108C45.7166 96.42 52.1142 92.3895 57.3818 87.031C56.926 92.8517 56.5154 98.6752 56.1127 104.518C56.0125 105.901 57.6502 106.554 58.5544 105.514C62.7805 100.659 66.5743 95.1947 69.1098 89.2476C70.9015 95.2888 74.244 101.096 77.6095 106.278C78.2205 107.208 79.914 106.738 79.9776 105.634C80.2772 99.7034 80.1353 93.7163 79.1487 87.8643C83.865 91.7088 88.915 95.0392 94.3064 97.8743C95.3169 98.395 96.3343 97.1538 95.9416 96.2195C93.5567 90.4935 91.2201 84.7252 88.5068 79.1593C93.8548 80.5834 99.6085 81.0894 105.044 81.4653C106.129 81.5368 107.209 80.1815 106.308 79.241C102.584 75.3529 98.8249 71.3261 94.7426 67.7868C100.142 67.1884 105.532 65.6263 110.571 63.7504C111.67 63.3322 111.645 61.6498 110.564 61.2244C105.948 59.4488 101.218 57.8746 96.3983 56.7124C100.451 53.1181 104.511 49.5425 108.563 45.9482C109.586 45.0344 108.889 43.4805 107.557 43.5564L107.531 43.5455ZM79.0744 24.1295C79.2341 28.3281 78.9602 32.4891 78.2763 36.6685C76.2366 35.6348 74.0965 34.8853 71.8825 34.4307C74.3574 31.0596 76.7371 27.6186 79.0636 24.156L79.0744 24.1295ZM64.0961 23.1253C65.6572 26.7348 67.1998 30.3522 68.7983 33.946C65.8506 33.7338 62.8643 34.1095 59.9876 35.1648C61.5455 31.2337 62.8488 27.1677 64.0882 23.1066L64.0961 23.1253ZM48.3927 27.6152C51.0821 30.5086 53.7312 33.4629 56.3832 36.372C56.51 36.5166 56.6506 36.5894 56.7911 36.6623C56.5934 36.7674 56.3691 36.8617 56.1793 36.9854C55.9334 37.1328 55.8094 37.3608 55.7306 37.5918C53.6488 38.0271 51.7457 38.7831 49.9929 39.7397C49.9715 39.3749 49.7662 39.0434 49.3494 38.8888C49.0429 35.1257 48.6539 31.3753 48.4301 27.5994L48.3927 27.6152ZM37.2754 38.203C40.7399 39.1215 44.2308 40.0508 47.7367 40.754C47.7838 40.8662 47.7857 40.9753 47.8142 41.0953C45.2891 42.8823 43.2257 45.2448 41.6077 47.8819C40.5242 44.4673 39.0828 41.2473 37.2567 38.2109L37.2754 38.203ZM29.2091 50.6088C32.9868 50.4941 36.7833 50.3715 40.5052 49.8625C39.2766 52.3798 38.4775 55.1345 38.1355 57.9827C35.2896 55.397 32.2508 52.9803 29.2169 50.6275L29.2091 50.6088ZM39.2095 68.8553C39.3685 69.3382 39.557 69.7866 39.7455 70.2351C34.8603 69.2322 29.9397 68.3541 25.0239 67.5399C29.3779 65.7097 33.7349 63.8344 37.9632 61.7052C38.0315 64.1172 38.4273 66.5235 39.2174 68.874L39.2095 68.8553ZM31.8753 83.5259C35.621 81.1379 39.0347 78.2738 42.018 74.9089C43.0995 76.6971 44.3207 78.2947 45.6816 79.7016C41.0535 81.1412 36.5376 82.5337 31.8753 83.5259ZM41.4942 95.4243C43.7584 90.9764 45.996 86.5177 48.1384 81.9892C50.5019 83.8981 53.1431 85.3166 55.9871 86.276C51.232 89.5061 46.5017 92.6378 41.4942 95.4243ZM59.055 100.532C59.3359 96.1264 59.6169 91.7206 59.8713 87.3039C62.4128 87.7529 65.0685 87.8459 67.7559 87.5958C65.0364 92.0592 62.2433 96.3995 59.0737 100.524L59.055 100.532ZM77.4446 100.916C74.9951 96.4486 73.0737 91.8251 70.8809 87.1838C72.7493 86.8162 74.6453 86.3051 76.5081 85.6101C76.563 85.7409 76.6554 85.856 76.7851 85.9554C76.9227 86.0734 77.079 86.1837 77.2166 86.3017C77.3768 91.1817 77.5292 96.0431 77.4446 100.916ZM92.1841 93.819C87.529 91.1142 83.1643 88.0015 79.0416 84.5231C81.9126 83.1405 84.4141 81.2974 86.5373 79.1296C88.2087 84.1 90.1949 88.9821 92.1919 93.8377L92.1841 93.819ZM76.1255 82.4506C62.566 87.9083 48.113 83.3411 42.5269 69.11C37.5161 56.3521 44.6776 44.3047 56.4394 39.3828C56.7893 39.5875 57.2012 39.6782 57.6183 39.415C83.1498 24.4614 105.746 70.528 76.1255 82.4506ZM101.605 78.3591C97.2939 77.8845 93.0457 77.1415 88.7512 76.5499C90.5727 74.1352 91.941 71.4271 92.8287 68.5693C95.5198 71.9898 98.5502 75.2236 101.605 78.3591ZM80.8879 38.1214C85.1644 35.95 89.3437 33.5996 93.4807 31.201C91.7455 35.7564 90.0181 40.3304 88.3624 44.9183C86.2943 42.2475 83.7205 39.9431 80.8692 38.1292L80.8879 38.1214ZM105.917 62.4083C101.894 63.6153 97.8429 64.4388 93.6882 65.1737C94.0326 63.1159 94.1086 60.9951 93.9398 58.8672C94.1622 58.6638 94.3845 58.4604 94.6147 58.2757C98.3846 59.6595 102.147 61.0246 105.917 62.4083ZM93.4668 55.7018C93.0776 53.8865 92.4887 52.0671 91.66 50.3046C91.1434 49.1804 90.5335 48.0955 89.8566 47.0607C90.0061 46.9979 90.1429 46.8524 90.2531 46.6962C94.8065 46.8051 99.4043 46.6536 103.971 46.4272C100.478 49.5224 96.9858 52.6175 93.4747 55.7205L93.4668 55.7018Z" fill="#432A05"/>
<path d="M72.1618 40.5358C69.4895 38.6247 65.7778 38.4257 62.8744 39.8881C62.1131 40.274 62.5765 41.3765 63.3849 41.1027C66.0609 40.1977 68.6318 40.6123 71.0173 42.0503C72.0484 42.6723 73.1869 41.2483 72.154 40.5171L72.1618 40.5358Z" fill="#432A05"/>
<path d="M63.99 42.5419C63.3498 42.745 63.6461 43.7639 64.2882 43.6699C66.958 43.2733 68.9356 44.4209 70.663 46.3334C71.5189 47.271 72.8253 46.1942 72.1858 45.1437C70.5886 42.4948 66.7564 41.6429 63.9713 42.5497L63.99 42.5419Z" fill="#432A05"/>
<path d="M60.9456 79.8161C58.3203 79.9522 55.8402 78.7078 54.5792 76.3354C54.1981 75.6381 53.1625 76.0514 53.4393 76.8146C54.572 80.0325 57.8066 82.235 61.2315 81.9608C62.6376 81.8535 62.3222 79.7432 60.9456 79.8161Z" fill="#432A05"/>
</svg>
